<?xml version="1.0" encoding="utf-8"?>
<!-- Generator: Adobe Illustrator 28.1.0, SVG Export Plug-In . SVG Version: 6.00 Build 0)  -->
<svg version="1.1" id="Layer_1" xmlns="http://www.w3.org/2000/svg" xmlns:xlink="http://www.w3.org/1999/xlink" x="0px" y="0px"
	 viewBox="0 0 2000 2000" style="enable-background:new 0 0 2000 2000;" xml:space="preserve">
<style type="text/css">
	.st0{fill:#FECCC1;}
	.st1{fill:#F9AFA5;}
	.st2{opacity:0.3;enable-background:new    ;}
	.st3{fill:#0073BD;}
	.st4{fill:#5D98DE;}
	.st5{fill:#F9EBD9;}
	.st6{clip-path:url(#SVGID_00000119097838628589083000000008791529749316465294_);}
	.st7{fill:#F98C7A;}
	.st8{opacity:0.15;enable-background:new    ;}
	.st9{clip-path:url(#SVGID_00000172408804500943459300000004356017717679691687_);}
	.st10{fill:none;}
	.st11{fill:#100852;}
	.st12{fill:#FFB54A;}
	.st13{fill:#F2A186;}
</style>
<g>
	<rect class="st0" width="2000" height="2000"/>
</g>
<g>
	<rect y="891.3" class="st1" width="2000" height="1108.7"/>
</g>
<g class="st2">
	<path d="M1774.8,1337.4L732.4,974.8c-13-4.5-27.2-4.3-40.1,0.7l-336.9,131.2h-112v59.4c-0.1,1.4-0.1,2.8,0,4.2
		c0.8,9.5,6.6,18.7,17.4,22.4l1026.1,356.9c18.3,6.4,38.3,6,56.4-1l432.3-168.3c9.9-3.8,14.7-12.7,14.6-21.6
		C1790.1,1349.8,1784.9,1340.9,1774.8,1337.4z"/>
</g>
<g>
	<g>
		<g>
			<path class="st3" d="M1753.2,1261.5v45.5c0,11.3-7,21.5-17.6,25.7l-427.5,166.4c-16.5,6.4-34.8,6.8-51.5,0.9l-994.8-345.9
				c-11.1-3.8-18.5-14.3-18.5-26v-50.6h0.1c0.7,9.3,6.4,18.2,17,21.9l1001.5,348.4c17.9,6.2,37.4,5.9,55.1-1l422-164.3
				C1748.6,1278.9,1753.3,1270.2,1753.2,1261.5L1753.2,1261.5z"/>
		</g>
		<g>
			<path class="st4" d="M1738.2,1240.8l-1017.5-354c-12.7-4.4-26.6-4.2-39.1,0.7l-422.1,164.4c-11.6,4.5-16.9,15.4-16.1,25.7
				c0.7,9.3,6.4,18.2,17,21.9l1001.5,348.4c17.9,6.2,37.4,5.9,55.1-1l422-164.3c9.6-3.7,14.3-12.4,14.2-21.1
				C1753,1252.8,1748,1244.2,1738.2,1240.8z M1504.6,1356.9c-13.9,7.3-38.4,5.9-54.8-3.2s-18.4-22.4-4.6-29.7
				c13.9-7.3,38.4-5.9,54.8,3.2C1516.4,1336.2,1518.5,1349.5,1504.6,1356.9z M1626.6,1241.7L1225.2,1398c-6.8,2.7-14,4-21.3,4
				c-3.3,0-6.6-0.3-9.8-0.8c-3.2-0.5-6.4-1.4-9.5-2.4l-894.7-311.2c-11.6-4-11.9-20.3-0.5-24.8l399.9-155.7c7.8-3,16.4-3.2,24.3-0.5
				l912.5,317.4C1634.5,1226.9,1634.7,1238.5,1626.6,1241.7z"/>
		</g>
		<g>
			<path class="st5" d="M1626.6,1241.7L1225.2,1398c-6.8,2.7-14,4-21.3,4c-3.3,0-6.6-0.3-9.8-0.8c-3.2-0.5-6.4-1.4-9.5-2.4
				l-894.7-311.2c-11.6-4-11.9-20.3-0.5-24.8l399.9-155.7c7.8-3,16.4-3.2,24.3-0.5l912.5,317.4
				C1634.5,1226.9,1634.7,1238.5,1626.6,1241.7z"/>
		</g>
		<g>
			<path class="st3" d="M1504.6,1356.9c-13.9,7.3-38.4,5.9-54.8-3.2s-18.4-22.4-4.6-29.7c13.9-7.3,38.4-5.9,54.8,3.2
				C1516.4,1336.2,1518.5,1349.5,1504.6,1356.9z"/>
		</g>
		<g class="st2">
			<path d="M1513.8,1344.5c-2.3-3.1-5.8-6-10.6-8.7c-16.4-9.1-40.9-10.5-54.8-3.2c-6.1,3.2-9.2,7.7-9.2,12.4
				c-5.7-7.6-3.9-15.9,6-21.1c13.9-7.3,38.4-5.9,54.8,3.2C1509.2,1332.2,1513.8,1338.6,1513.8,1344.5z"/>
		</g>
	</g>
	<g>
		<g>
			<g>
				<path d="M1281.1,1505.3c-8.4,0-16.8-1.4-24.8-4.2l-994.8-345.9c-11.5-4-19.2-14.8-19.2-27v-51.7l1.1,0.1l-0.1,1h1v50.6
					c0,11.3,7.2,21.4,17.8,25.1l994.8,345.9c16.5,5.7,34.5,5.4,50.8-0.9l427.5-166.4c10.1-3.9,16.9-13.9,16.9-24.7v-45.5h1v-1h1
					v46.5c0,11.7-7.3,22.4-18.2,26.6l-427.5,166.4C1299.7,1503.5,1290.4,1505.3,1281.1,1505.3z"/>
			</g>
		</g>
		<g>
			<path d="M1288,1453.4c-9,0-17.9-1.5-26.6-4.5L260,1100.5c-10.7-3.7-17.5-13-17.7-24.4c-0.2-11.4,6.2-21,16.8-25.1l422.2-164.4
				c12.8-5,26.9-5.3,39.8-0.8l1017.4,354c9.5,3.3,15.5,11.7,15.7,21.7c0.2,10-5.5,18.4-14.8,22.1l-422,164.3
				C1307.9,1451.6,1298,1453.4,1288,1453.4z M682,888.5l-422.2,164.4c-11.7,4.6-15.7,15-15.5,23.2c0.2,10.5,6.5,19.1,16.4,22.5
				l1001.5,348.4c17.7,6.1,37,5.8,54.4-1l422-164.3c8.5-3.3,13.7-11,13.6-20.2c-0.1-7.2-3.9-16.2-14.3-19.9l-1017.4-354
				C708,883.4,694.3,883.7,682,888.5L682,888.5z"/>
		</g>
		<g>
			<path d="M1203.8,1403.1c-6.8,0-13.4-1.1-19.6-3.4l-894.7-311.2c-5.8-2-9.4-7-9.5-13.1c-0.1-6,3.4-11.4,9-13.6l399.9-155.7
				c8.1-3.1,17-3.3,25-0.4l912.7,317.4c4.2,1.5,6.9,5.2,7,9.7c0.1,4.5-2.5,8.3-6.7,9.9L1225.5,1399
				C1218.7,1401.7,1211.4,1403.1,1203.8,1403.1z M701.9,905.7c-4.2,0-8.4,0.8-12.4,2.3l-399.9,155.7c-5.8,2.3-7.8,7.5-7.7,11.7
				c0.1,4.1,2.3,9.2,8.2,11.3l894.7,311.2c6.1,2.2,12.5,3.2,19,3.2c7.3,0,14.4-1.3,20.9-3.9l401.4-156.3c4.1-1.6,5.5-5.2,5.4-8
				c-0.1-2.8-1.6-6.4-5.7-7.8L713.2,907.6C709.6,906.4,705.8,905.7,701.9,905.7z"/>
		</g>
		<g>
			<path d="M1482.2,1362.5c-3.3,0-6.8-0.2-10.3-0.7c-21.9-3.1-38.4-15.3-36.7-27.1l0,0c0.8-5.8,5.8-10.7,14.1-13.6
				c8-2.9,18.2-3.6,28.8-2.1c10.5,1.5,20.1,5.1,27,10.1c7.1,5.1,10.5,11.2,9.7,17C1513.3,1356,1499.6,1362.5,1482.2,1362.5z
				 M1437.1,1335c-1.5,10.7,14.2,21.8,35,24.8c20.9,3,39.1-3.3,40.6-14c0.7-5.1-2.4-10.4-8.9-15.1c-6.7-4.8-15.9-8.3-26.1-9.7
				c-10.2-1.5-20.1-0.7-27.8,2C1442.4,1325.7,1437.8,1329.9,1437.1,1335L1437.1,1335z"/>
		</g>
	</g>
	<g>
		<g>
			<defs>
				<path id="SVGID_1_" d="M1650.4,1232.5l-425.2,165.6c-6.8,2.7-14,4-21.3,4l0,0c-6.6,0-13.1-1.1-19.3-3.3l-928.6-323V491
					l1411.9,30.4L1650.4,1232.5z"/>
			</defs>
			<clipPath id="SVGID_00000109019427129362672460000012454961184791160753_">
				<use xlink:href="#SVGID_1_"  style="overflow:visible;"/>
			</clipPath>
			<g style="clip-path:url(#SVGID_00000109019427129362672460000012454961184791160753_);">
				<g>
					<path class="st7" d="M705.4,966.5L535,561.6l-17.3,7.3l11.9,28.3l-94.2,36.7l-16.3-38.7l-17.3,7.3l123,292.4l164,389.8
						l17.3-7.3l-50.8-121l94.2-36.7l46.5,110.4l-70,27.3l-5.4,2.1l6.8,17.5l75.8-29.5l25.8,61.3l8.7-3.6h9.4v-1.9L705.4,966.5z
						 M442.7,651.2l94.2-36.7l44,104.6l-94.2,36.7L442.7,651.2z M494,773.1l94.2-36.7l46.5,110.4l-94.2,36.7L494,773.1z
						 M549.3,904.6l-1.6-3.8l94.2-36.7l39,92.6l7.5,17.8l-94.2,36.7L549.3,904.6z M648,1139l-46.5-110.4l94.2-36.7l46.5,110.4
						L648,1139z"/>
				</g>
				<g class="st8">
					<path d="M705.4,966.5l-24.5-9.7l7.5,17.8l-94.2,36.7l-44.9-106.7l-24.5-9.7l164,389.8l17.3-7.3l-50.8-121l94.2-36.7l46.5,110.4
						l-70,27.3l-5.4,2.1l6.8,17.5l75.8-29.5l25.8,61.3l8.7-3.6h9.4v-1.9L705.4,966.5z M648,1139l-46.5-110.4l94.2-36.7l46.5,110.4
						L648,1139z"/>
				</g>
				<g>
					<path d="M828.6,1310.1l-25.8-61.3l-75.9,29.5l-7.5-19.4l6.3-2.5l69-26.9L749,1121l-92.3,36l50.8,121l-19.1,8.1l-0.4-0.9
						l-287.4-683l19.1-8.1l16.3,38.6l92.3-36l-11.9-28.3l19.1-8.1l0.4,0.9l312.3,741.9v3.1H838L828.6,1310.1z M803.8,1246.2
						l25.8,61.3l8-3.3h8.6v-0.7L534.5,562.9l-15.5,6.5l11.9,28.3l-96.1,37.4l-16.3-38.6l-15.5,6.5l286.2,680.3l15.5-6.5l-50.8-121
						l1-0.4l95.1-37.1l47.3,112.2l-75.4,29.4l6.1,15.6L803.8,1246.2z M647.5,1140.3L600.2,1028l96.1-37.4l47.3,112.2L647.5,1140.3z
						 M602.8,1029.2l45.7,108.6l92.3-36l-45.7-108.6L602.8,1029.2z M593.8,1012.5l-47.3-112.2l96.1-37.4l47.3,112.2L593.8,1012.5z
						 M549.1,901.4l45.7,108.6l92.3-36l-45.7-108.6L549.1,901.4z M539.9,884.8l-47.2-112.2l96.1-37.4L636,847.4L539.9,884.8z
						 M495.3,773.7l45.6,108.6l92.4-36l-45.7-108.6L495.3,773.7z M486.2,757.1l-44.8-106.4l96.1-37.4l44.8,106.4L486.2,757.1z
						 M444,651.8l43.2,102.8l92.3-36l-43.2-102.8L444,651.8z"/>
				</g>
			</g>
		</g>
		<g>
			<defs>
				<path id="SVGID_00000114046548316535254880000018432148323815880364_" d="M1650.4,1232.5l-425.2,165.6c-6.8,2.7-14,4-21.3,4l0,0
					c-6.6,0-13.1-1.1-19.3-3.3l-928.6-323V491l1411.9,30.4L1650.4,1232.5z"/>
			</defs>
			<clipPath id="SVGID_00000086679459277870162060000017719270692505597585_">
				<use xlink:href="#SVGID_00000114046548316535254880000018432148323815880364_"  style="overflow:visible;"/>
			</clipPath>
			<g style="clip-path:url(#SVGID_00000086679459277870162060000017719270692505597585_);">
				<g>
					<g>
						<path class="st10" d="M855.2,1318.2c-1.2-2.9-2.3-5.7-3.5-8.6l2.2,0.8C854.2,1313,854.7,1315.6,855.2,1318.2z"/>
					</g>
					<g>
						<path class="st11" d="M786.8,723.6c0,0-0.5,0.7-1.3,1.7c-3.2,3.9-12.2,12.9-25,10.2c-16.2-3.4-25.4-18.6-25.4-18.6
							s8.8-18.9-4.7-25.4s-15.9,13.9-15.9,13.9s-8.2-8.2-17.1-4.6c-9,3.6-15.3-16.7-31.6-7.9l3.9,16.2c0,0-19.9-7.1-25.7-33.1
							s4.7-33.5,4.7-33.5c15.5,1.7,10.8-5.4,59.5-19.1c48.7-13.6,58.8,17.4,58.8,17.4s13.9,1,16.3,20.3
							C785.7,680.4,786.8,723.6,786.8,723.6z"/>
					</g>
					<g>
						<g>
							<path d="M737.2,756.2l-1.8-1c2.1-3.8,3-6.7,3-6.7l1.9,0.6C740.3,749.2,739.3,752.2,737.2,756.2z"/>
						</g>
					</g>
					<g>
						<g>
							<polygon points="924.4,855.7 923.4,853.9 923.5,853.9 924.5,855.6 							"/>
						</g>
					</g>
					<g>
						<g>
							<rect x="762.2" y="921.6" transform="matrix(0.5361 -0.8442 0.8442 0.5361 -417.76 1084.9918)" width="32.2" height="2"/>
						</g>
					</g>
					<g>
						<g>
							<rect x="768.5" y="935.9" transform="matrix(0.9076 -0.4198 0.4198 0.9076 -321.8869 409.5145)" width="2" height="0.3"/>
						</g>
					</g>
					<g>
						<g>
							<path d="M923.2,855.1c-7.5-16-14.5-32.4-21-48.7l1.9-0.7c6.5,16.3,13.5,32.7,21,48.6L923.2,855.1z"/>
						</g>
					</g>
					<g>
						<path class="st12" d="M1015.6,1006.7c-2.5,1.1-5,2.1-7.6,3.1c-74.9,29.2-186.1,41.5-186.1,41.5l-13.4-29.6l0,0l-38.8-85.6
							l-8.4,13.2l0,0l-10,15.7c-1.5-0.8-3-1.6-4.5-2.4c-24.4-13.3-44.1-28.2-52.5-47.3c-0.5-1.2-1-2.5-1.5-3.8L747.1,781
							c0,0,0.8-0.2,2.1-0.6c8.3-2.3,38-12.4,43.5-39.2c0,0,64.1-11.4,88.4-3.7c24.3,7.7,73.3,78.7,73.3,78.7s-0.4,1.8-1.4,4.7
							c-1.4,4-4,10.1-8.4,16.2c-4.7,6.6-11.3,13.3-20.5,17.5c0,0,0,0-0.1,0c0.6,1.4,1.3,2.8,1.9,4.1c0,0.1,0.1,0.1,0.1,0.1
							c4.8,10.2,9.6,19.9,14.4,29.2C979.8,964.3,1015.6,1006.7,1015.6,1006.7z"/>
					</g>
					<g class="st2">
						<path d="M944.7,837.1c-4.7,6.6-11.3,13.3-20.5,17.5c-4.4-9.9-15.3-34.5-20.2-46.5L944.7,837.1z"/>
					</g>
					<g class="st2">
						<polygon points="821.8,1051.3 769.6,936.2 761.2,949.3 783.6,914.1 859.1,1046.2 						"/>
					</g>
					<g>
						<path class="st11" d="M1007.9,1009.8c-74.9,29.2-186.1,41.5-186.1,41.5l-108.7,143.5l17.6,84.9l108.7,38.4l-30.5-97.4
							l54.6-58.6l-24,78.6l12.1,81.8l100.9,27.1l-9.8-127.4L1007.9,1009.8z M851.6,1309.6l2.2,0.8c0.4,2.6,0.9,5.2,1.4,7.8
							C854,1315.3,852.8,1312.4,851.6,1309.6z"/>
					</g>
					<g>
						<g>
							<polygon points="864.3,1162.9 863.6,1162.2 862.6,1162.2 862.6,1161.8 862.8,1161.5 910.4,1110.5 911.8,1111.9 							"/>
						</g>
					</g>
					<g>
						<g>
							<polygon points="862.6,1162.2 862.6,1162.2 864.6,1162.2 							"/>
						</g>
					</g>
					<g>
						<path class="st11" d="M746.7,962.6l-54,72c0,0-58.8-23.5-97.7-96.5c0,0-0.6-5.1,0.7-12.2c1.8-10.1,7.5-24,24.3-32.3l0,0
							c2.6-1.3,5.4-2.4,8.6-3.4l56.3,49.3l9.4-24.2C702.6,934.4,722.3,949.3,746.7,962.6z"/>
					</g>
					<g>
						<g>
							<rect x="681.3" y="940.8" transform="matrix(0.3633 -0.9317 0.9317 0.3633 -442.0887 1236.7827)" width="5" height="2"/>
						</g>
					</g>
					<g>
						<path class="st13" d="M624.4,871.3l-4.5,22.3l0,0c-16.8,8.3-22.4,22.2-24.3,32.3c-24.5-16.3-37.7-38.9-42-47.3
							c-1-2-0.8-4.4,0.6-6.2c16.4-20.2,34.2-22.3,41.8-22.1c2.3,0.1,4.3,1.4,5.2,3.5l9.8,22.7L624.4,871.3z"/>
					</g>
					<g>
						<g>
							<rect x="611.3" y="876.2" transform="matrix(0.9185 -0.3953 0.3953 0.9185 -297.7838 313.6991)" width="2" height="6.5"/>
						</g>
					</g>
					<g>
						<path class="st11" d="M940.5,888.1c-5.4-10.5-10.9-21.6-16.4-33.4c17.8-8.3,26.1-25.5,29-33.8
							C953,820.9,973.4,862.7,940.5,888.1z"/>
					</g>
					<g>
						<path class="st13" d="M792.8,741.2c-5.5,26.8-35.2,36.9-43.5,39.2l-12.9-24.7c-3.7,6.7-11,16.1-23.5,17.4
							c-19.8,2-26.5-15.2-26.5-15.2l-16.5-48.7L666,693c16.3-8.8,22.6,11.6,31.6,7.9c9-3.6,17.1,4.6,17.1,4.6s2.3-20.3,15.9-13.9
							s4.7,25.4,4.7,25.4s9.2,15.2,25.4,18.6c12.8,2.7,21.8-6.3,25-10.2L792.8,741.2z"/>
					</g>
					<g>
						<g>
							<path d="M729.7,710.7c-0.3-1.2-0.8-2-1.7-2.4c-1.7-0.9-4.2,0.1-4.2,0.1l-1.6,0.7l1.6-10.3l2,0.3l-1.1,7
								c1.2-0.2,2.8-0.3,4.3,0.4c1.4,0.7,2.3,1.9,2.7,3.7L729.7,710.7z"/>
						</g>
					</g>
				</g>
				<g>
					<g>
						<path class="st10" d="M855.2,1318.2c-1.2-2.9-2.3-5.7-3.5-8.6l2.2,0.8C854.2,1313,854.7,1315.6,855.2,1318.2z"/>
					</g>
					<g>
						<path d="M765.1,737c-1.5,0-3.2-0.2-4.8-0.5c-16.4-3.4-25.7-18.4-26-19.1L734,717l0.2-0.5c0.3-0.7,8.2-18.1-4.2-24.1
							c-3-1.4-5.6-1.5-7.7-0.3c-5.5,3-6.8,13.3-6.8,13.4l-0.2,2l-1.5-1.4c-0.1-0.1-7.9-7.7-16-4.4c-4.3,1.7-7.9-1.2-11.7-4.2
							c-5.2-4.1-10.6-8.4-19.2-4.1l4.1,17.3l-1.7-0.6c-0.2-0.1-20.5-7.6-26.3-33.8c-5.8-26.3,4.6-34.2,5.1-34.5l0.3-0.2l0.4,0
							c7.4,0.8,9.9-0.4,16.5-3.6c6.7-3.2,17.8-8.5,42.6-15.5c25.5-7.2,40.5-1.9,48.5,3.7c7.5,5.3,10.5,11.8,11.3,13.8
							c2.9,0.5,14.4,3.6,16.6,21.1c2.3,19.1,3.5,62.1,3.5,62.5l0,0.3l-0.2,0.3C787.5,724.3,779,737,765.1,737z M736.2,716.8
							c1.6,2.5,10.4,14.8,24.5,17.7c14.2,3,23.7-9.3,25.1-11.2c-0.1-4-1.3-43.8-3.5-62c-2.3-18.2-14.8-19.4-15.4-19.4l-0.7-0.1
							l-0.2-0.6c0-0.1-2.6-7.6-10.9-13.4c-11-7.7-27.2-8.8-46.7-3.3c-24.6,6.9-35.6,12.2-42.2,15.4c-6.5,3.1-9.5,4.6-17.2,3.8
							c-1.5,1.4-9,9.7-4,32.2c4.6,20.6,18.3,29.1,23.3,31.6l-3.6-15.1l0.7-0.4c10.2-5.5,16.7-0.2,22,4c3.6,2.9,6.5,5.2,9.7,3.9
							c7.3-2.9,14,1.3,16.8,3.6c0.7-3.4,2.6-10.4,7.5-13.1c2.7-1.5,5.9-1.4,9.5,0.3C743.8,696.8,737.5,713.6,736.2,716.8z"/>
					</g>
					<g>
						<g>
							<path d="M709.6,774.3c-17.9,0-24.2-15.8-24.3-16l-16.5-48.7l1.9-0.6l16.5,48.7c0.2,0.6,6.7,16.5,25.5,14.5
								c18.9-1.9,25.7-23.4,25.8-23.6l1.9,0.6c-0.1,0.2-7.2,23-27.5,25C711.7,774.2,710.6,774.3,709.6,774.3z"/>
						</g>
					</g>
					<g>
						<g>
							<path d="M751.6,966.3l-0.8-0.4c-33.4-17.5-52.2-34.7-59-54l-0.1-0.4l54.8-131.4l0.5-0.1c0.4-0.1,38.7-8.8,44.9-39l0.1-0.7
								l0.7-0.1c2.6-0.5,64.6-11.4,88.9-3.7c24.4,7.7,71.8,76.2,73.8,79.1l0.2,0.4l-0.1,0.4c-0.1,0.3-6.5,28.1-30.9,39.3l-0.8-1.8
								c21.9-10,28.8-34,29.7-37.5c-3.9-5.5-49.6-70.7-72.5-78c-22.5-7.1-80.4,2.5-87.3,3.6c-6.5,29-41.1,38.6-45.8,39.7
								l-54.1,129.7c6.7,18.6,24.9,35.2,57.1,52.1l35.1-55.2l1.7,1.1L751.6,966.3z"/>
						</g>
					</g>
					<g>
						<g>
							<path d="M821.2,1052.4l-52.7-116.1l1.8-0.8l52.1,114.8c10-1.2,120.7-14.6,191.5-43.9c-7.7-9.5-64.9-82-111.8-199.9l1.9-0.7
								c49.9,125.7,111.7,199.7,112.3,200.4l0.9,1l-1.3,0.5c-74,31.1-192.8,44.6-194,44.7L821.2,1052.4z"/>
						</g>
					</g>
					<g>
						<g>
							<polygon points="841,1319.8 729.9,1280.5 712.1,1194.6 712.4,1194.2 821,1050.7 822.6,1051.9 714.2,1195.1 731.6,1279 
								837.9,1316.5 807.9,1220.5 808.3,1220.1 910.4,1110.5 911.8,1111.9 810.1,1221 							"/>
						</g>
					</g>
					<g>
						<g>
							<polygon points="953.6,1351 850.8,1323.4 838.6,1240.7 838.6,1240.5 862.6,1161.9 864.5,1162.5 840.6,1240.9 852.5,1321.8 
								951.4,1348.4 941.7,1222.2 941.7,1222 1007,1009.5 1008.9,1010.1 943.7,1222.4 							"/>
						</g>
					</g>
					<g>
						<g>
							<rect x="673" y="928.7" transform="matrix(0.3637 -0.9315 0.9315 0.3637 -427.8973 1232.9128)" width="31" height="2"/>
						</g>
					</g>
					<g>
						<g>
							<path d="M693,1035.8l-0.7-0.3c-0.6-0.2-59.6-24.5-98.2-97l-0.1-0.2v-0.2c0-0.4-3.8-37.1,34.2-48.9l0.5-0.2l56.7,49.6
								l-1.3,1.5l-55.8-48.9c-34.9,11.1-32.6,43.4-32.3,46.4c36,67.5,89.7,92.7,96.4,95.6l53.5-71.4l1.6,1.2L693,1035.8z"/>
						</g>
					</g>
					<g>
						<g>
							<polygon points="620.9,893.8 618.9,893.4 623.1,872.9 611.5,877.4 610.7,875.6 625.8,869.7 							"/>
						</g>
					</g>
					<g>
						<g>
							<path d="M595.1,926.7c-24.6-16.3-37.8-38.8-42.3-47.7c-1.2-2.4-0.9-5.2,0.7-7.3c16.8-20.8,35.4-22.6,42.7-22.4
								c2.6,0.1,5,1.7,6.1,4.1l12.3,28.7l-1.8,0.8l-12.3-28.7c-0.7-1.7-2.4-2.8-4.3-2.9c-6.9-0.2-24.8,1.6-41,21.7
								c-1.2,1.4-1.4,3.4-0.5,5.1c4.5,8.8,17.5,30.9,41.6,46.9L595.1,926.7z"/>
						</g>
					</g>
					<g>
						<g>
							<path d="M941.1,888.9l-1.2-1.6c31.9-24.7,12.5-65.6,12.3-66l1.8-0.9C954.1,820.9,974.2,863.2,941.1,888.9z"/>
						</g>
					</g>
					<g>
						<g>
							<rect x="788.1" y="724.6" transform="matrix(0.909 -0.4168 0.4168 0.909 -233.8341 395.6317)" width="2" height="17.4"/>
						</g>
					</g>
					<g>
						<g>
							<rect x="741.8" y="754.1" transform="matrix(0.8859 -0.4638 0.4638 0.8859 -271.4883 432.1141)" width="2" height="27.9"/>
						</g>
					</g>
					<g>
						<g>
							<path d="M729.7,710.7c-0.3-1.2-0.8-2-1.7-2.4c-1.7-0.9-4.2,0.1-4.2,0.1l-1.6,0.7l1.6-10.3l2,0.3l-1.1,7
								c1.2-0.2,2.8-0.3,4.3,0.4c1.4,0.7,2.3,1.9,2.7,3.7L729.7,710.7z"/>
						</g>
					</g>
				</g>
			</g>
		</g>
	</g>
</g>
<g>
	<path class="st5" d="M1887.4,502.5c0,0-71.2-118.3-185.3-118.3S1590.7,474,1455.5,474c-102.6,0-133.1-48.5-257.7,28.5H1887.4z"/>
</g>
<g>
	<path class="st5" d="M827.1,347.6c0,0-22.4-70.7-100-70.7s-93.1,62-199.9,62s-79.3-93.1-182.7-93.1S172.3,347.6,172.3,347.6H827.1z
		"/>
</g>
</svg>
