<?xml version="1.0" encoding="UTF-8"?>
<svg xmlns="http://www.w3.org/2000/svg" version="1.1" viewBox="0 0 4000 2250">
  <!-- Generator: Adobe Illustrator 28.7.1, SVG Export Plug-In . SVG Version: 1.2.0 Build 142)  -->
  <g>
    <g id="Layer_3">
      <g>
        <rect x="0" y="0" width="4000" height="2250" fill="#fef2e7"/>
        <rect x="0" y="1857.29" width="4000" height="392.72" fill="#cff1c0"/>
        <g>
          <g>
            <path d="M3158.24,323.97s-51.45-29.12-61.75-57.71c-10.29-28.59,74.64,7.57,76.02,13.19s-14.27,44.52-14.27,44.52Z" fill="#f38487"/>
            <path d="M1388.81,962.49s24.43-66.54,42.43-84.54,9.23,25.07,9.23,25.07c0,0,31.27-30.23,50.56-45.33,19.29-15.1-17.36,48.54-17.36,48.54,0,0-45.64,72.64-45.64,75.86s-39.21-19.61-39.21-19.61Z" fill="#a14336"/>
            <path d="M1748.69,589.43l-8.23-32.04s-22.2-14.67-25.4-27.64c-3.86-15.64,30,11.14,30,11.14,0,0-11.14-34.5-7.5-46.29,3.64-11.79,16.5,30,16.5,30,0,0-1.29-30,1.71-36.43s10.5,31.07,10.5,31.07c0,0,1.07-31.05,3.21-31.81s9.64,31.17,9.64,31.17c0,0-1.93-13.29,3.86-20.79s6.43,42.64,6.43,43.29,11.14,43.71,11.14,43.71l-51.87,4.61Z" fill="#fbc77b"/>
            <path d="M946.52,1969.53s9.64,144,54.64,142.71,39.86-150.43,39.86-150.43l-94.5,7.71Z" fill="#a14336"/>
            <path d="M467.59,1753.43s-144.6,109.6-132.87,143.29c11.74,33.69,186.91-70.22,186.91-70.22l-54.05-73.07Z" fill="#a14336"/>
            <path d="M1090.73,1419.12s3.28,175.49,12.22,240.33c8.94,64.84-20.95,310.04-20.95,310.04l-159.39,19.8-17.51-275.76-79.72-307.56,265.35,13.16Z" fill="#32134b"/>
            <polygon points="938.86 1405.97 825.38 1733.94 491.95 1873.88 438.41 1726.95 688.64 1554.71 713.08 1392.64 938.86 1405.97" fill="#4e3761"/>
            <path d="M1078.38,1066.6c7.12,1.64,124.09-8.62,132.81,0,8.73,8.62,194.36-128.03,194.36-128.03,0,0,34.91,41.82,34.91,64.21s-194.36,202.79-194.36,202.79l-139.66,29.1-28.07-168.06Z" fill="#a14336"/>
            <path d="M1747.31,607.74s-7.93-14.79-4.29-24c3.64-9.21,46.07-12.43,57.86-8.14,11.79,4.29,15,30.64,15,30.64l-68.57,1.5Z" fill="#edb04c"/>
            <path d="M1606.09,920.39s111.86-41.16,137.57-92.58-9-174.85-9-209.56,77.14-40.5,93.21-7.07c16.07,33.43,50.14,192.21,21.21,259.07-28.93,66.86-141.43,171.1-141.43,171.1l-101.57-120.96Z" fill="#f87679"/>
            <path d="M3504.26,1808.29s48.45,83.58,80.87,90.95c32.42,7.37-22.79-130.83-22.79-130.83l-58.08,39.88Z" fill="#f38487"/>
            <path d="M3139.36,1938.51s.39,128.54,32.88,136.88c32.49,8.34,45.48-149.68,45.48-149.68l-78.36,12.81Z" fill="#f38487"/>
            <path d="M3145.88,2019.28s19.49,32.47,54.28,15.22c0,0,93.35,14.87,88.62,33.17s-120.11,39.34-139.55,25.68c-19.43-13.66-3.36-74.06-3.36-74.06Z" fill="#7b3f39"/>
            <path d="M956.16,2041.21s38.1,35.09,81,13.82c0,0,105.38,24.56,99.56,47.11-5.82,22.56-148.12,48.52-172.08,31.67s-8.48-92.6-8.48-92.6Z" fill="#7b3f39"/>
            <path d="M3560.09,1883.14s22.64,7.25,34.07-16.76c0,0,60.2,27.62,85.91,26.62,25.71-1,25.21-8.06,26.8,14.39,1.59,22.44-102.59,53.01-128.92,45.21-26.33-7.8-17.86-69.45-17.86-69.45Z" fill="#7b3f39"/>
            <path d="M2687.7,1006.85s-41.79,81.96-71.36,81.96-4.9-242.49-4.9-242.49c0,0,18-10.34,15.86-26.82-2.14-16.48-24.43-10.48-24.43-10.48-2.88-34.52-7.07-69.45-12.34-69.49-5.14-.04-9.79,33.03-13.29,68.14-5.47-46.97-10.33-70.4-14.57-70.29-4.4.11-8.15,25.57-11.23,76.35-3.36-5.7-9.92-8.46-15.77-6.92-6.93,1.83-11.62,9.39-9.94,17.21-4.33-5.01-9.95-7.95-13.63-6.49-4.76,1.88-7.8,11.69-2.65,22.78,3.14,12.86,6.29,25.71,9.43,38.57,0,0-47.89,373.07,32.14,399.11,80.04,26.04,215.13-136.93,215.13-136.93l-78.44-134.21Z" fill="#f38487"/>
            <polygon points="2784.13 855.46 2640.45 1043.49 2757.19 1183.31 2873.07 1023.24 2784.13 855.46" fill="#32134b"/>
            <path d="M3027.56,721.91s69.44-86.01,88.95-169.98c19.51-83.97-6.53-259.95,28.49-308.98,35.02-49.03,114.84,260.09,114.48,324.34-.36,64.24-121.69,269.47-121.69,269.47l-110.23-114.85Z" fill="#f38487"/>
            <polygon points="2934.23 827.81 3043.72 668.39 3175.95 815.14 3075.66 1005.14 2934.23 827.81" fill="#32134b"/>
            <path d="M2995.44,1297.89l275.5,275.2,214.73,277.44,113.95-83.51-158.18-267.37c-20.32-34.34-44.33-66.36-71.6-95.48l-236.15-252.14-138.25,145.87Z" fill="#eda328"/>
            <path d="M2818.1,1327.09s38.05,78.92,56.82,125.72,201.36,222.67,201.36,222.67l33.32,279.63,148.13-10.48.4-258.74c.09-57.91-17.86-114.4-51.36-161.64l-109.58-154.52-21.62-168.97-257.47,126.33Z" fill="#edb04c"/>
            <path d="M1120.73,1051.98c-.74-10.28-8.85-18.48-19.12-19.33-45.78-3.82-165.89-16.64-194-47.56-34.91-38.41-194.36,104.74-69.83,206,100.18,81.46,231.25,65.75,278.67,56.49,10.37-2.02,17.57-11.49,16.81-22.03l-12.54-173.57Z" fill="#edb04c"/>
            <path d="M1743.3,2076.59s60.72,4.01,90.87,37.66c30.15,33.65-110.57,20.1-116.04,17.73-15.74-6.82-10.65-57.75-10.65-57.75l35.83,2.36Z" fill="#d7815a"/>
            <path d="M1552.22,2069.44s78.51,18.76,89.19,39.33c10.68,20.56-106.48,15.48-109.48,9.36s-4.43-32.37-4.43-32.37l24.72-16.32Z" fill="#d7815a"/>
            <path d="M1666.65,1940.47s38.6,156.23,63.65,172.98c25.05,16.75,23.11-197.34,23.11-197.34l-86.76,24.36Z" fill="#fbc77b"/>
            <path d="M1505.3,1922.12s9.2,161.36,31.62,178.56c22.42,17.2,62.13-180.85,62.13-180.85l-93.75,2.29Z" fill="#fbc77b"/>
            <path d="M1421.84,1486.83c-2.57-25.84-7.72-46.31-5.13-79.08,2.39-30.19,10.07-54.51,16.36-70.62l76.12-.4,267.49-1.42-42.54,267.68-118.32,352.51-122.67-9.44-18.86-260.2s-51.65-191.09-52.44-199.03Z" fill="#32134b"/>
            <path d="M1792.5,1610.13l-15.83-274.82-267.49,1.42-35.1,22.51s-15.32,59.61,6.99,94.95c15.2,24.07,54.88,95.16,78.64,138.03l32.3,80.35,74.09,298.6,107.9-7.8,18.5-353.24Z" fill="#4e3761"/>
            <path d="M1722.87,1947.08c-.89,0-1.63-.71-1.66-1.61l-11.46-341.41-21.38-119.62-12.44-69.57c-.16-.9.44-1.77,1.35-1.93.91-.16,1.77.44,1.93,1.35l12.44,69.57,21.4,119.73c.01.08.02.16.03.24l11.47,341.53c.03.92-.69,1.69-1.61,1.72-.02,0-.04,0-.06,0Z" fill="#fddfc2"/>
            <path d="M1690,1485.82c-.24,0-.48-.05-.7-.16-.83-.39-1.19-1.38-.8-2.21,17.83-38.13,12.92-66.33,12.87-66.61-.17-.9.43-1.77,1.34-1.94.9-.16,1.77.43,1.94,1.34.22,1.19,5.14,29.53-13.13,68.62-.28.6-.88.96-1.51.96Z" fill="#fddfc2"/>
            <path d="M1557.48,1928.65s-.03,0-.05,0c-.92-.03-1.64-.79-1.62-1.71l6.47-231.75-26.96-137.1c-.18-.9.41-1.78,1.31-1.95.9-.18,1.78.41,1.95,1.31l27,137.28c.02.12.03.24.03.37l-6.47,231.93c-.03.9-.76,1.62-1.66,1.62Z" fill="#fddfc2"/>
            <path d="M1523.06,2066.18s46.56,3.11,61.63,13.68c.66.46,1.92,1.51,2.24,3.14,1.61,8.08-21.66,23.67-42.98,21.52-3.56-.36-6.9-.7-10.46-2.91-6.59-4.08-10.66-33.9-10.43-35.44Z" fill="#fbc77b"/>
            <path d="M1724.41,2075.88s55.57,7.08,63.69,23.14c8.12,16.06-55.3,19.82-66.51,13.47-11.2-6.35-7.34-14-12.96-32.21-5.61-18.2,15.77-4.4,15.77-4.4Z" fill="#fbc77b"/>
            <polygon points="1655.85 1965.02 1780.08 1954.19 1778.52 1974.45 1658.6 1985.08 1655.85 1965.02" fill="#4e3761"/>
            <polygon points="1485.67 1931.54 1625.78 1951.44 1615.44 1967.27 1489.69 1962.97 1485.67 1931.54" fill="#32134b"/>
            <path d="M1385.27,1419.76s-32.12-450.56,89.39-541.13c121.5-90.57,275.76,120.16,305.2,488.18,0,0-232.66,92.49-394.59,52.95Z" fill="#f89b9d"/>
            <path d="M1405.05,1412.92s-9,36.53,6.43,55.82c15.43,19.29,379.93-35.36,385.07-49.5,5.14-14.14-10.93-48.21-10.93-48.21l-380.57,41.9Z" fill="#f89b9d"/>
            <g>
              <path d="M2871.63,1761.16c4.58,3.92,35.81,74.36,36.22,103.38.41,29.02-74.37,14.39-101.99-65.38-27.63-79.77,65.77-37.99,65.77-37.99Z" fill="#fbc77b"/>
              <path d="M2824.02,1835.14c4.14,3.13,21.07,15.27,43.95,14.4,16.68-.64,27.82-7.85,32.28-11.15,71.71,21.65,89.7,35.76,91.34,45.32,3.43,20.07-124.99,16.76-155.9,12.49-30.9-4.27-11.68-61.07-11.68-61.07Z" fill="#7b3f39"/>
              <path d="M2492.88,1465.09s204.27,5.86,240.91,12.73c36.64,6.87,214.35,281.68,214.35,281.68l-201.24,82.44-182.28-244.02-149.6-55.29,77.86-77.53Z" fill="#f87679"/>
              <path d="M2250.83,962.66l47.59-140.47s-121.22-165.36-125.58-206.35c-4.36-40.99,161.75,65.71,210.9,164.11,49.15,98.41-26.06,268.82-26.06,268.82l-106.85-86.11Z" fill="#a14336"/>
              <path d="M2182.35,1066.98l60.46-136.49,134.65,113.88s-23.36,179.24-23.36,183.37-171.75-160.76-171.75-160.76Z" fill="#b7e1de"/>
              <path d="M2713.64,1815.37c4.58,3.66,35.83,74.2,36.23,104.43s-74.39,21.98-102.03-58.63c-27.64-80.61,65.8-45.8,65.8-45.8Z" fill="#fbc77b"/>
              <path d="M2114.88,1585.34l-141.84-326.02c-6.36-14.63-.57-31.73,13.41-39.4,19.8-10.86,48.36-23.77,72.23-23.77,41.22,0,158.01,337.59,185.49,361.16,27.48,23.57,340.76,22.19,354.5,104.64s-37.1,130.53-37.1,130.53l-354.5-6.87-92.21-200.26Z" fill="#f4a442"/>
              <path d="M2672.88,1535.53c34.81,47.17,130.53,306.41,130.53,306.41l-194.05,51.3-75.26-265.65-305.55-51.33s95.18-34.05,230.55-59.97c97.22-18.61,204.07,6.08,213.78,19.24Z" fill="#f89b9d"/>
              <path d="M2207.09,1576.26s-200.61-363.62-189.62-454.31,154.59-115.42,268.28,0c113.7,115.42,248.55,303.3,226.47,367.37s-305.13,86.94-305.13,86.94Z" fill="#a5dad6"/>
              <path d="M2188.77,1513.54h0c0-26.76,21.69-48.45,48.45-48.45h129.35c26.76,0,48.45,21.69,48.45,48.45h0s-226.26,0-226.26,0Z" fill="#4e3761"/>
              <path d="M2735.63,1988.09h-119.08c-6.28,0-11.82-4.11-13.64-10.12l-52.02-171.68-347.13-14.24c-5.33-.22-10.09-3.4-12.34-8.23l-218.38-469.87-203.81,39.99c-7.73,1.51-15.21-3.52-16.73-11.24-1.52-7.72,3.52-15.21,11.24-16.73l214.77-42.14c6.43-1.26,12.9,2.03,15.67,7.98l219.42,472.12,348.57,14.3c6.06.25,11.29,4.3,13.05,10.11l51.9,171.25h108.51c7.87,0,14.25,6.38,14.25,14.25s-6.38,14.25-14.25,14.25Z" fill="#463157"/>
              <circle cx="2228.56" cy="1823.56" r="238.22" fill="#fff"/>
              <polygon points="2474.51 1816.79 2262.58 1816.79 2458.37 1735.69 2453.19 1723.18 2257.4 1804.28 2407.25 1654.43 2397.68 1644.86 2247.83 1794.71 2328.93 1598.92 2316.42 1593.74 2235.32 1789.53 2235.32 1577.61 2221.79 1577.61 2221.79 1789.53 2140.69 1593.74 2128.18 1598.92 2209.28 1794.71 2059.43 1644.86 2049.86 1654.43 2199.71 1804.28 2003.92 1723.18 1998.74 1735.69 2194.53 1816.79 1982.6 1816.79 1982.6 1830.33 2194.53 1830.33 1998.74 1911.43 2003.92 1923.93 2199.71 1842.83 2049.86 1992.69 2059.43 2002.26 2209.28 1852.4 2128.18 2048.2 2140.69 2053.38 2221.79 1857.58 2221.79 2069.51 2235.32 2069.51 2235.32 1857.59 2316.42 2053.38 2328.93 2048.2 2247.83 1852.4 2397.68 2002.26 2407.25 1992.68 2257.4 1842.83 2453.19 1923.93 2458.37 1911.43 2262.58 1830.33 2474.51 1830.33 2474.51 1816.79" fill="#463157"/>
              <circle cx="2228.56" cy="1823.56" r="91.37" fill="#463157"/>
              <circle cx="2228.56" cy="1823.56" r="46.32" fill="#f4a442"/>
              <path d="M2228.56,2089.81c-35.94,0-70.81-7.04-103.64-20.93-31.71-13.41-60.18-32.61-84.63-57.05-24.45-24.45-43.64-52.92-57.05-84.63-13.89-32.84-20.93-67.71-20.93-103.64s7.04-70.81,20.93-103.65c13.41-31.71,32.61-60.18,57.05-84.63,24.45-24.45,52.92-43.64,84.63-57.05,32.84-13.89,67.71-20.93,103.64-20.93s70.81,7.04,103.64,20.93c31.71,13.41,60.18,32.61,84.63,57.05,24.45,24.45,43.64,52.92,57.05,84.63,13.89,32.84,20.93,67.71,20.93,103.65s-7.04,70.81-20.93,103.64c-13.41,31.71-32.61,60.18-57.05,84.63-24.45,24.45-52.92,43.64-84.63,57.05-32.84,13.89-67.71,20.93-103.64,20.93ZM2228.56,1597.91c-124.42,0-225.65,101.22-225.65,225.65s101.22,225.65,225.65,225.65,225.65-101.22,225.65-225.65-101.22-225.65-225.65-225.65Z" fill="#463157"/>
              <path d="M2228.56,2115.37c-39.38,0-77.6-7.72-113.59-22.94-34.75-14.7-65.96-35.74-92.75-62.53-26.79-26.79-47.83-58-62.53-92.75-15.22-35.99-22.94-74.21-22.94-113.59s7.72-77.6,22.94-113.59c14.7-34.75,35.74-65.96,62.53-92.75,26.79-26.79,58-47.83,92.75-62.53,35.99-15.22,74.21-22.94,113.59-22.94s77.6,7.72,113.59,22.94c34.75,14.7,65.96,35.74,92.75,62.53,26.79,26.79,47.83,58,62.53,92.75,15.22,35.99,22.94,74.21,22.94,113.59s-7.72,77.6-22.94,113.59c-14.7,34.75-35.74,65.96-62.53,92.75-26.79,26.79-58,47.83-92.75,62.53-35.99,15.22-74.21,22.94-113.59,22.94ZM2228.56,1576.26c-136.36,0-247.3,110.94-247.3,247.3s110.94,247.3,247.3,247.3,247.3-110.94,247.3-247.3-110.94-247.3-247.3-247.3Z" fill="#4e3761"/>
              <circle cx="2625.3" cy="2043.37" r="58.77" fill="#fff"/>
              <polygon points="2685.98 2041.7 2633.7 2041.7 2682 2021.69 2680.73 2018.61 2632.42 2038.62 2669.39 2001.65 2667.03 1999.28 2630.06 2036.26 2650.07 1987.95 2646.98 1986.67 2626.97 2034.98 2626.97 1982.69 2623.63 1982.69 2623.63 2034.98 2603.62 1986.67 2600.54 1987.95 2620.55 2036.25 2583.58 1999.28 2581.22 2001.65 2618.19 2038.62 2569.88 2018.61 2568.6 2021.69 2616.91 2041.7 2564.62 2041.7 2564.62 2045.04 2616.91 2045.04 2568.6 2065.05 2569.88 2068.14 2618.19 2048.13 2581.22 2085.1 2583.58 2087.46 2620.55 2050.49 2600.54 2098.79 2603.62 2100.07 2623.63 2051.77 2623.63 2104.05 2626.97 2104.05 2626.97 2051.77 2646.98 2100.07 2650.07 2098.79 2630.06 2050.49 2667.03 2087.46 2669.39 2085.1 2632.42 2048.13 2680.73 2068.14 2682 2065.05 2633.7 2045.04 2685.98 2045.04 2685.98 2041.7" fill="#463157"/>
              <circle cx="2625.3" cy="2043.37" r="22.54" fill="#463157"/>
              <circle cx="2625.3" cy="2043.37" r="15.94" fill="#f4a442"/>
              <path d="M2625.3,2109.06c-8.87,0-17.47-1.74-25.57-5.16-7.82-3.31-14.85-8.04-20.88-14.08-6.03-6.03-10.77-13.06-14.08-20.88-3.43-8.1-5.16-16.71-5.16-25.57s1.74-17.47,5.16-25.57c3.31-7.82,8.04-14.85,14.08-20.88,6.03-6.03,13.06-10.77,20.88-14.08,8.1-3.43,16.71-5.16,25.57-5.16s17.47,1.74,25.57,5.16c7.82,3.31,14.85,8.04,20.88,14.08,6.03,6.03,10.77,13.06,14.08,20.88,3.43,8.1,5.16,16.71,5.16,25.57s-1.74,17.47-5.16,25.57c-3.31,7.82-8.04,14.85-14.08,20.88-6.03,6.03-13.06,10.77-20.88,14.08-8.1,3.43-16.71,5.16-25.57,5.16ZM2625.3,1987.7c-30.7,0-55.67,24.97-55.67,55.67s24.97,55.67,55.67,55.67,55.67-24.97,55.67-55.67-24.97-55.67-55.67-55.67Z" fill="#463157"/>
              <path d="M2625.3,2120.72c-10.44,0-20.57-2.05-30.11-6.08-9.21-3.9-17.48-9.47-24.58-16.57-7.1-7.1-12.68-15.37-16.57-24.58-4.03-9.54-6.08-19.67-6.08-30.11s2.05-20.57,6.08-30.11c3.9-9.21,9.47-17.48,16.57-24.58,7.1-7.1,15.37-12.68,24.58-16.57,9.54-4.03,19.67-6.08,30.11-6.08s20.57,2.05,30.11,6.08c9.21,3.9,17.48,9.47,24.58,16.57,7.1,7.1,12.68,15.37,16.57,24.58,4.03,9.54,6.08,19.67,6.08,30.11s-2.05,20.57-6.08,30.11c-3.9,9.21-9.47,17.48-16.57,24.58-7.1,7.1-15.37,12.68-24.58,16.57-9.54,4.03-19.67,6.08-30.11,6.08ZM2625.3,1977.82c-36.14,0-65.55,29.41-65.55,65.55s29.41,65.55,65.55,65.55,65.55-29.41,65.55-65.55-29.41-65.55-65.55-65.55Z" fill="#4e3761"/>
              <path d="M2428.3,1527.79h-343.51c-7.87,0-14.25-6.38-14.25-14.25s6.38-14.25,14.25-14.25h343.51c7.87,0,14.25,6.38,14.25,14.25s-6.38,14.25-14.25,14.25Z" fill="#463157"/>
              <path d="M2239.15,1317.97l46.61,70.53s174.95,17.4,188.75,34.81c3.78,4.77-33.61,21.29-33.61,21.29,0,0-183.56,33.21-196.03,33.21-17.18,0-89.31-92.75-89.31-92.75l83.59-67.1Z" fill="#a14336"/>
              <path d="M2070.55,1131.56s-42.09,23.36,8.75,144.27c50.84,120.91,75.57,134.65,75.57,134.65l110.95-92.06s-98.23-262.44-195.28-186.87Z" fill="#b7e1de"/>
              <path d="M2666.01,1896.99c4.14,2.88,21.08,13.95,43.97,10.9,16.68-2.23,27.83-10.8,32.29-14.66,71.74,15.85,89.74,28.88,91.37,38.7,3.43,20.61-125.04,29.21-155.95,27.66-30.92-1.55-11.68-62.6-11.68-62.6Z" fill="#7b3f39"/>
              <path d="M2467.01,1398.82c-14.2-5.16-76.17,12.91-76.17,12.91l59.39,21.52s.36,1.07.95,2.75l-11.11,3.28s6.13,23.24,11.11,16.46c4.27-5.81,1.22-16.16.26-19,2.86,8.04,9.89,26.56,11.18,18.03,1.63-10.76,0-22.38,0-22.38,0,0,7.83,35.29,12.14,24.53,4.3-10.76-2.15-27.97-2.15-27.97,0,0,15.06,37.44,15.06,15.92s-6.46-40.88-20.66-46.05Z" fill="#a14336"/>
            </g>
            <g>
              <path d="M2082.09,1093.37h0c-15.25,6.61-32.97-.39-39.58-15.64l-39.05-90.08h.37s51.8-.81,51.8-.81l19.3,29.75,20.73,33.25c9.73,15.61,3.31,36.22-13.57,43.53Z" fill="#a14336"/>
              <path d="M2074.93,1016.58c-8.43,3.15-22.26,6.32-37.41,1.53-17.04-5.39-27.35-18.64-33.69-30.48l51.8-.81,19.3,29.75Z" fill="#32134b"/>
              <path d="M2098.3,929.53c9.68,18.47-.84,52.69-26.13,67.76-1.97,1.18-22.29,12.81-45.72,5.4-26.5-8.38-36.74-35.77-41.05-47.31-3.05-8.15-9.4-25.86-4.41-47.46,1.4-6.06,8.94-38.72,33.13-44.51,17.74-4.25,34.05,8.43,37.63,11.21,2.63,2.05,4.61,3.97,6.22,5.88,8.25,9.82,12,17.55,15.17,23.29,9.26,16.79,19.08,14.14,25.15,25.73Z" fill="#a14336"/>
              <path d="M2057.54,870.55c1.09.77,5.04,3.74,5.18,8,.2,6.43-8.4,12.32-13.92,11.24-2.6-.51-4.45-2.58-12.36-5.37-.16-.06-.24-.09-.25-.09.28.85,2.09,6.65-1.22,11.38-.46.66-1.79,2.51-4.26,3.56-3.23,1.37-6.26.47-7.86,0-6.79-2.02-7.9-9.42-10.32-8.89-1.92.42-3.32,5.31-2.35,9.6,1.29,5.68,5.93,6.64,6.69,11.22.37,2.28-.15,5.79-4.89,10.77.33.6,2.66,4.99.67,9.96-1.63,4.08-5.08,5.79-5.89,6.17.38,1.59,1.02,5.21-.3,9.5-1.41,4.58-4.25,7.31-5.48,8.37,16.1,14.27,18,36.06,8.01,48.03-8.08,9.69-26.3,15.73-37.38,5.96-8.54-7.53-10.39-22.28-2.76-34.33-10.16,13.78-29.59,16.48-42.48,6.8-13.54-10.16-15.85-30.96-3.89-44.43-19.07-2.76-31.25-19.2-29.09-34.01,1.54-10.62,10.36-19.8,22.12-23.43-10.39-8.44-13.05-23.31-6.32-34.66,6.9-11.65,21.74-16.37,34.28-10.76-5.29-13.24-1.7-26.88,6.16-31.88,9.81-6.24,29.18-.85,36.8,17.52,6.03-14.56,21.44-21.62,33.94-17.45,9.37,3.13,16.24,12.26,17.55,23.14,6.89-2.58,14.65-.69,19.46,4.71,5.08,5.7,5.86,14.2,1.88,20.88,6.6.37,10.87,6.4,9.76,11.48-.96,4.4-5.92,7.89-11.47,7.02Z" fill="#edb04c"/>
              <path d="M2013.97,946.31c4.34,8.21,4.08,20.34-1.72,24.03-7.82,4.97-26.99-4.56-28.59-18.1-.79-6.74,2.64-15.56,9.55-17.93,8.3-2.85,17.15,5.18,20.76,12Z" fill="#a14336"/>
            </g>
            <path d="M2811.14,1366.41s-112.63-439.3,0-548.46c112.63-109.16,312.49,73.61,407.87,431.91,0,0-229.8,129.18-407.87,116.55Z" fill="#4e3761"/>
            <path d="M693.31,1411s32.1-449.36,172.57-516.77c140.47-67.42,260.79,170.27,237.93,537.87,0,0-246.68,46.82-410.5-21.1Z" fill="#eda328"/>
            <g>
              <path d="M2738.01,654.96c-36.19,27.15-40.58,42.27-38.15,51.01,5.26,18.97,46.42,21.62,47.77,41.76.03.51.26,1.96.21,3.91-.41,15.78-15.3,20.41-19.24,33.08-4.06,13.08,6,26.83,8.35,30.04,12.75,17.43,35.22,19.52,45.83,20.51,51.98,4.85,120.98-31.39,121.84-72.38.36-17.06-12.72-31.13-38.88-59.28-26-27.98-51.25-47.24-69.22-59.46-19.5,3.6-39.01,7.2-58.51,10.8Z" fill="#f6b419"/>
              <path d="M2873.87,844.54h0c-15,7.2-32.99.87-40.19-14.13l-42.51-88.61.37-.02,51.78-2.79,20.44,29.02,22.01,32.47c10.33,15.24,4.69,36.1-11.9,44.06Z" fill="#f38487"/>
              <path d="M2863.77,768.02c-8.31,3.48-22.03,7.17-37.35,2.96-17.25-4.74-28.07-17.59-34.87-29.19l51.78-2.79,20.44,29.02Z" fill="#32134b"/>
              <path d="M2883.81,680.05c10.39,18.11,1.18,52.74-23.54,68.77-1.93,1.25-21.8,13.67-45.52,7.16-26.83-7.37-38.11-34.37-42.87-45.75-3.36-8.03-10.39-25.5-6.23-47.3,1.17-6.11,7.46-39.07,31.44-45.79,17.58-4.93,34.37,7.12,38.07,9.77,2.71,1.95,4.76,3.79,6.44,5.65,8.63,9.5,12.67,17.09,16.07,22.72,9.91,16.43,19.63,13.41,26.15,24.77Z" fill="#f38487"/>
              <path d="M2873.07,623.91c-5.78-2.45-11.55-4.9-17.33-7.34.97,1.06,8.12,9.18,6.34,20.54-1.38,8.79-7.59,16.22-16.16,19.43-1.39-2.38-6.55-10.89-13.14-14.34-1.86-.97-6.84-3.12-12.57-4.9-.16-.05-.25-.08-.25-.08,1.81,1.59,6.38,6.05,8.2,13.46,2.26,9.21-1.32,16.6-2.31,18.49-.53-2.55-2.71-11.42-11.1-18.15-7.48-6-15.47-6.73-18.23-6.86,2.55,4.07,8.88,15.38,7.95,30.75-1.23,20.19-14.07,32.61-16.99,35.29-5.2,0-10.4.02-15.61.03-5.95-.16-27.68-1.45-43.17-18.1-21.21-22.79-13.93-53.83-12.8-58.23,9.5-37.16,46.4-51.2,52.22-53.24,28.11-9.87,52.51-1.2,59.12,1.38,29.72,11.65,42.8,35.86,45.83,41.86Z" fill="#f6b419"/>
              <path d="M2787.47,706.13c4.65,8.04,4.86,20.18-.8,24.1-7.63,5.28-27.17-3.53-29.29-17-1.05-6.71,2.05-15.67,8.86-18.3,8.2-3.17,17.36,4.53,21.22,11.21Z" fill="#f38487"/>
            </g>
            <path d="M1771.78,1272.87s44.16,3.29,42.58,21.78-24.67,48.91-40.94,48.93-38.27-24.14-38.27-24.14l36.63-46.57Z" fill="#edb04c"/>
            <path d="M1064.85,1040.81s88.04-39.81,117.13-90.01,7.29-271.09-31.82-290.54c-39.12-19.45-32.17,209.12-66.05,232.89-33.89,23.76-95.83,53.15-95.83,53.15l76.57,94.52Z" fill="#a14336"/>
            <path d="M1614.18,1073.12c1.9-51.36-23.91-100.14-67.97-126.61-17.55-10.54-35.76-16.15-51.39-9.89-48.93,19.62-86.19,174.1,1.09,279.18,87.28,105.08,226.15,126.63,241.44,117.32s48.21-36.65,46.4-66.74c-1.82-30.09-160.43-122.58-167.31-141-2.98-7.97-3.09-29.91-2.26-52.25Z" fill="#f87679"/>
            <path d="M839.51,1012.86c-12.42,28.77,27.06,98.78,85.96,106.77,46.39,6.3,150.38-60.69,192.48-89.44,10.13-6.92,12.7-20.75,5.74-30.86-20.13-29.2-59.44-86.05-78.51-112.37-6.03-8.32-17.11-11.17-26.4-6.79-42.41,19.96-155.41,77.37-179.28,132.69Z" fill="#edb04c"/>
            <path d="M1805.16,1298.81s21.43,5.36,40.07,0,34.96-7.45,44.8,2.38c9.84,9.83,15.41,30.19,10.27,30.19s-18.64-18.54-18.64-18.54c0,0,10.71,14.9,9.64,20.25-1.07,5.36-19.71-13.29-19.71-13.29,0,0,7.29,9.14,7.29,15.5s-14.79-10.14-14.79-10.14c0,0,2.57,7.29,1.5,13.71s-21.86-15.43-21.86-15.43c0,0-36.86,15.64-53.57,10.29-16.71-5.36,15-34.93,15-34.93Z" fill="#fbc77b"/>
            <path d="M2200.61,671.55l-41.86-22.75s-37.44,2.05-48.34-7.74c-10.9-9.79,30.81-15.96,30.81-15.96,0,0-50.71-49.29-52.13-57.82s49.76,22.67,49.76,22.67l11.37-13.19,18.01-14.22s-31.28-31.28-17.54-34.6c13.74-3.32,78.2,104.27,78.2,104.27l-28.28,39.34Z" fill="#a14336"/>
            <path d="M1550.12,909.62l-6.21.15c-18.09.45-32.99-14.09-32.99-32.18v-104.22l.37.15,51.18,21.25,8.63,37.41,9.44,37.37c5.06,20.02-9.77,39.55-30.41,40.06Z" fill="#fbc77b"/>
            <path d="M1569.36,824.63c-5.45-.37-15.24-2.44-22.51-10.77-8.18-9.37-10.72-22.36-11.4-33.05l29.02,15.87,4.89,27.95Z" fill="#32134b"/>
            <path d="M1632.08,738.66c7.02,21.17-10,55.48-39.31,67-2.29.9-25.74,9.67-49.2-2.21-26.52-13.43-32.59-44.12-35.14-57.04-1.8-9.13-5.44-28.92,3.56-50.86,2.52-6.15,16.13-39.33,42.68-41.26,19.46-1.41,34.48,14.78,37.78,18.35,2.43,2.62,4.18,4.99,5.54,7.29,7.01,11.79,9.63,20.6,11.99,27.21,6.87,19.32,17.7,18.23,22.1,31.52Z" fill="#fbc77b"/>
            <path d="M1519.57,779.71l45.48-11.45s-6.52-34.43-5.02-34.92c1.49-.48,18.59,16.48,18.59,16.48l11.72-2.95s-6.01-9.99-11.17-21.68c-6.57-14.89-10.51-25.96-6.06-31.84,6.19-8.18,27.69,6.51,39.01-3.55,1.23-1.09,5.04-4.48,5.57-9.43.52-4.83-2.14-10.73-1.72-10.87.03-.01.07.02.1.04-.49-3.83-4.49-31.64-29.88-47.46-24.07-15-49.1-7.83-54-6.43-15.97,4.57-26.25,14.03-34.07,21.21-4.89,4.5-13.85,12.87-21.02,26.7-3.31,6.38-10.21,19.21-10,36.03.39,31.13,21,52.97,28.28,60.69,8.87,9.41,17.8,15.58,24.22,19.41Z" fill="#4f2565"/>
            <path d="M1577.46,741.28c2.76,8.21.69,19.34-5.21,21.86-7.95,3.4-24.16-8.27-23.59-20.97.29-6.32,4.78-13.93,11.49-15.07,8.08-1.37,15.01,7.36,17.3,14.18Z" fill="#fbc77b"/>
            <path d="M914.61,929.8l-6.21.15c-18.09.45-32.99-14.09-32.99-32.18v-104.22l.37.15,51.18,21.25,8.63,37.41,9.44,37.37c5.06,20.02-9.77,39.55-30.41,40.06Z" fill="#a14336"/>
            <path d="M933.84,844.8c-5.45-.37-15.24-2.44-22.51-10.77-8.18-9.37-10.72-22.36-11.4-33.05l29.02,15.87,4.89,27.95Z" fill="#32134b"/>
            <path d="M993.21,776.87c1.64,22.25-23.24,51.36-54.48,55.38-2.44.31-27.33,3.09-47.17-14.15-22.44-19.5-20.83-50.74-20.15-63.89.48-9.29,1.78-29.38,15.87-48.46,3.95-5.35,25.25-34.2,51.46-29.59,19.22,3.38,29.83,22.75,32.16,27.02,1.71,3.13,2.83,5.85,3.6,8.42,3.92,13.15,4.31,22.33,4.98,29.32,1.95,20.41,12.71,21.99,13.74,35.96Z" fill="#a14336"/>
            <path d="M950.04,774.66s-13.56-44.63-3.65-56.1c9.91-11.48,16.69-6.26,40.17-11.48,23.48-5.22,31.3-53.21,13.04-67.3-18.26-14.09-32.34,2.61-32.34,2.61,0,0-10.72-20.87-25.71-13.04-14.98,7.83-23.9,19.82-23.9,19.82-6.3-.7-24.55-1.9-43.39,8.97-3.37,1.94-24.6,14.63-32.2,40.59-5.67,19.35.97,35.61,12.61,65.75,7.39,19.15,15.46,34.08,21.3,43.93,7.82-.82,15.64-1.64,23.47-2.46,9.57-2.2,15.47-.48,19.11,1.56,5.58,3.13,6.83,7.36,13.63,15.64,4.26,5.19,9.97,11.28,14.75,13.86,16.79,9.04,43.1,4.25,54.31-12.24,6.85-10.07,5.13-26.38-2.23-33.91-.81-.82-5.04-5.16-8.94-4.13-4.72,1.23-4.05,9-8.94,10.95-4.28,1.7-9.59-2.33-15.42-6.76-4.14-3.15-10-8.31-15.66-16.27Z" fill="#edb04c"/>
            <path d="M939.6,766.09c.67,8.63-4.05,18.92-10.39,19.93-8.54,1.36-21.41-13.92-17.75-26.1,1.82-6.06,8.04-12.34,14.82-11.81,8.16.64,12.76,10.8,13.31,17.97Z" fill="#a14336"/>
            <path d="M504.68,1787.28l-2.18-4.5c2.39-1.15,238.93-115.81,262.42-143.99,9.67-11.6,21.06-48.91,31.26-102.36,8.5-44.56,13.03-84.39,11.82-88.48,0,0,.05.16.19.36l4.09-2.88c.67.95,2.06,2.93-1.33,30.23-2.18,17.55-5.63,39.29-9.47,59.64-6.14,32.55-18.56,89.7-32.72,106.69-24.17,29.01-254.3,140.56-264.08,145.29Z" fill="#fddfc2"/>
            <path d="M804.34,1515.37l-2.99-4.01c35.78-26.65,34.27-48.81,34.25-49.03l4.98-.49c.1,1.01,2.07,24.99-36.24,53.53Z" fill="#fddfc2"/>
            <path d="M2670.83,1850.31c-.54-1.94-54.18-194.32-72.14-244.76-16.33-45.88-103.33-33.23-150.07-26.44-3.22.47-6.24.91-9.02,1.29-44.78,6.24-50.95-16.55-51.19-17.52l4.85-1.22c.21.79,5.66,19.37,45.65,13.8,2.77-.39,5.78-.82,8.99-1.29,48.16-7,137.79-20.04,155.5,29.71,18.02,50.6,71.71,243.16,72.25,245.1l-4.82,1.34Z" fill="#fddfc2"/>
            <path d="M2809.86,1778.38l-77.29-151.29q-14.59-28.56-14.59-29.18h5-2.5l2.24-1.1c.83,1.67,90.68,177.52,91.59,179.29l-4.45,2.28Z" fill="#fddfc2"/>
            <path d="M962.51,1955.64c-.12-2.12-12.06-212.85-12.06-258.01s-40-189.15-40.41-190.61l4.82-1.34c1.66,5.96,40.59,146.51,40.59,191.95s11.93,255.61,12.05,257.73l-4.99.28Z" fill="#fddfc2"/>
            <path d="M702.66,1408.53s-13.14,42-9.36,53.57c3.79,11.57,240.34,29.52,398.92,15.4l3.01-55.26-392.57-13.71Z" fill="#edb04c"/>
            <path d="M867.66,911.81s-8.57-35.83-2.14-50.06c6.43-14.23,75.27-10.68,80.49-11.81s10.36,50.3,10.36,61.87-18,25.65-48,26.76-40.71-26.76-40.71-26.76Z" fill="#edb04c"/>
            <path d="M1129.24,702.44v-36.57c1.58-16.23-1.94-26.86-5.36-33.51-5.31-10.32-14.06-18.19-11.35-22.64,1.35-2.21,4.79-2.35,6.27-2.41,12.24-.49,20.81,16.33,21.34,17.41l17.82-16.12c.68-.13,8-1.38,13.43,3.96,4.39,4.31,4.44,9.86,4.43,10.89.46-.02,4.21-.16,6.6,2.69,2.23,2.65,2.35,6.79.14,10.04,4.37.13,8,3.35,8.63,7.49.57,3.8-1.49,7.63-5.09,9.33.73.4,3.13,1.83,4.24,4.81,1.7,4.56-1.18,8.59-1.41,8.91-9.19,19.79-18.38,39.58-27.58,59.37l-32.12-23.65Z" fill="#a14336"/>
            <path d="M372.24,1835.93s-6.84,27.06,15,57.99c0,0-55.92,106.14-53.2,127.36s-44.87-34.76-40.67-139.82c2.89-72.32,78.87-45.53,78.87-45.53Z" fill="#7b3f39"/>
            <path d="M1000.01,2123.01c-17.09,0-29.14-.88-30.54-.99l.38-4.99c1,.08,100.4,7.31,144.17-21.03l2.72,4.2c-29.96,19.4-83.11,22.81-116.73,22.81Z" fill="#fddfc2"/>
            <rect x="1040.71" y="2073.31" width="24.2" height="5" transform="translate(-1269.16 2236.69) rotate(-67.07)" fill="#fddfc2"/>
            <rect x="1071.53" y="2080.51" width="16.13" height="5" transform="translate(-1266.46 2105.6) rotate(-63.15)" fill="#fddfc2"/>
            <path d="M323.28,1971.93c-16.19-32.37-11.4-113.55-11.19-116.99l4.99.31c-.05.83-4.92,83.27,10.67,114.44l-4.47,2.24Z" fill="#fddfc2"/>
            <rect x="350.6" y="1889.71" width="5" height="30.43" transform="translate(-1450.96 1198.69) rotate(-58.12)" fill="#fddfc2"/>
            <rect x="341.07" y="1922.16" width="5" height="20.8" transform="translate(-1564.24 1470.93) rotate(-66.32)" fill="#fddfc2"/>
            <rect x="1792.37" y="2102.67" width="13.37" height="5" transform="translate(-494.53 3656.89) rotate(-83.56)" fill="#fddfc2"/>
            <rect x="1599.73" y="2089.1" width="5" height="11.14" fill="#fddfc2"/>
            <path d="M1496.16,643.96s-59.4,43.96-62.36,78.43c-3.12,36.35,20.32,47.7,12.86,68.79-11.12,31.43-90-18-102.86,51.43-4.72,25.5,32.23,51.73,20.57,75.86-9.35,19.35-40.44,10.51-59.14,28.93-26.43,26.04-35.22,94.15,6.43,125.36,36.31,27.21,92.14,12.18,112.5-16.07,21.62-30-6.17-61.85,18-95.79,19.76-27.74,45.18-16.08,65.57-45.64,16.58-24.04,6.56-41.61,18-81.64,9.12-31.92,26.47-49.98,39.31-65.33-24.43,5.57-52.52,1.82-66.95-13.09-24.67-25.49-1.93-111.21-1.93-111.21Z" fill="#4f2565"/>
            <path d="M2920.26,1883.33c-37.9,0-79.55-2.37-82.17-2.53l.29-4.99c.97.06,97.4,5.55,131.02.03l.81,4.93c-11.67,1.92-30.3,2.56-49.95,2.56Z" fill="#fddfc2"/>
            <path d="M2732.76,1941.61c-27.98,0-52.32-2.93-54.26-3.17l.61-4.96c.91.11,91.67,11.03,124.82-9.11l2.6,4.27c-16.93,10.29-47.01,12.97-73.77,12.97Z" fill="#fddfc2"/>
            <rect x="2745.27" y="1908.09" width="23" height="5" transform="translate(-425.02 2971.89) rotate(-53.17)" fill="#fddfc2"/>
            <rect x="2920.06" y="1858.48" width="16.14" height="5" transform="translate(-353.11 2988.22) rotate(-51.4)" fill="#fddfc2"/>
            <path d="M3148.73,2084.74v-5c12.38,0,108.26-4.48,123.28-21.24l3.72,3.34c-18.03,20.11-125.94,22.9-127,22.9Z" fill="#fddfc2"/>
            <rect x="3224.19" y="2052.1" width="19.88" height="5" transform="translate(-175.55 3802.47) rotate(-59.57)" fill="#fddfc2"/>
            <path d="M3588.88,1939.6c-11.11,0-18.09-.95-18.56-1.02l.7-4.95c.73.1,73.68,9.69,126.15-35.98l3.28,3.77c-28.37,24.69-62.23,33.48-85.64,36.5-9.92,1.28-18.78,1.68-25.93,1.68Z" fill="#fddfc2"/>
            <rect x="3618.28" y="1892.99" width="17.47" height="5" transform="translate(460.48 4488.02) rotate(-66.9)" fill="#fddfc2"/>
            <rect x="3645.05" y="1893.35" width="7.87" height="5" transform="translate(583.31 4636.47) rotate(-69.25)" fill="#fddfc2"/>
            <rect x="3198.91" y="2050.98" width="23.81" height="5" transform="translate(-324.7 3476.92) rotate(-54.53)" fill="#fddfc2"/>
            <path d="M3028.79,155.54l36.01-41.96c3.47-4.05,9.87-3.62,12.77.86l95.82,147.92c2.51,3.87,1.22,9.06-2.8,11.31l-48.78,27.33c-3.72,2.09-8.43.88-10.68-2.75l-83.05-133.28c-1.85-2.96-1.55-6.78.72-9.43Z" fill="#32134b"/>
            <polygon points="3038.16 166.68 3067.41 132.59 3156.68 270.4 3116.73 292.78 3038.16 166.68" fill="#4e3761"/>
            <path d="M3113.48,169.87s-17.13,6.43-9.25,19.73c7.88,13.3,22.95,7.26,22.95,7.26-2.11,1.38-18.36,12.14-16.3,17.92,1.66,4.65,14.94,5.28,32.8,1.72-4.46,2.43-25.01,13.82-23.21,19.26,2.07,6.26,32.48,1.09,36,.48-16.27,5.26-24.2,9.34-23.79,12.25.46,3.31,11.66,5.11,33.58,5.4l14.48,22.23-7.25-25.14s-13.91-72.78-60.02-81.11Z" fill="#f38487"/>
            <path d="M1163.16,633.39c-.28,0-.57-.12-.76-.35-.36-.42-.3-1.05.12-1.41l10.45-8.84c.42-.36,1.05-.3,1.41.12.36.42.3,1.05-.12,1.41l-10.45,8.84c-.19.16-.42.24-.64.24Z" fill="#42210b"/>
            <path d="M1174.73,648.17c-.2,0-.41-.06-.59-.19-.45-.32-.55-.95-.22-1.4l7.23-9.96c.32-.45.95-.55,1.4-.22.45.32.55.95.22,1.4l-7.23,9.96c-.2.27-.5.41-.81.41Z" fill="#42210b"/>
            <path d="M1180.84,661.83c-.2,0-.4-.06-.58-.19-.45-.32-.55-.95-.23-1.4,2.34-3.27,4.9-7.02,5.15-7.63.21-.51.79-.75,1.31-.54.51.21.75.79.54,1.31-.46,1.13-4.56,6.88-5.38,8.03-.2.27-.5.42-.81.42Z" fill="#42210b"/>
            <path d="M956.59,731.53c-.29,0-.57-.12-.77-.36-.35-.43-.29-1.06.13-1.41,2.8-2.32,9.25-5.51,13.57-.99.38.4.37,1.03-.03,1.41-.4.38-1.03.37-1.41-.03-4.12-4.3-10.58.93-10.86,1.15-.19.15-.41.23-.63.23Z" fill="#42210b"/>
            <path d="M1590.02,714.39c-.15,0-.31-.04-.45-.11-.49-.25-.69-.85-.44-1.34.11-.22,2.77-5.36,7.09-6.45,2-.51,3.99-.08,5.94,1.26.45.31.57.94.25,1.39-.32.45-.94.57-1.39.25-1.47-1.01-2.88-1.33-4.3-.97-3.44.87-5.78,5.38-5.81,5.42-.18.35-.53.55-.89.55Z" fill="#42210b"/>
            <path d="M1617.73,739.94c-.55,0-1-.45-1-1s.45-1,1-1c.12,0,3.23-.13,4.6-4.9.3-1.06.21-1.88-.27-2.53-1.12-1.49-4.13-1.82-5.19-1.82-.55,0-1-.45-1-1,0-.55.45-1,1-1,.2,0,4.84.03,6.79,2.61.88,1.16,1.08,2.61.6,4.29-1.79,6.28-6.33,6.35-6.52,6.35Z" fill="#42210b"/>
            <path d="M1615.73,763.89c-.5,0-.93-.37-.99-.88-.07-.55.32-1.05.87-1.12,11.67-1.46,10.75-10.4,10.7-10.78-.07-.55.32-1.04.87-1.11.55-.07,1.04.32,1.11.87.01.11,1.25,11.3-12.44,13.01-.04,0-.08,0-.12,0Z" fill="#42210b"/>
            <path d="M2039.7,925.24c-.42,0-.82-.27-.95-.69-.08-.26-2-6.39,1.18-10,1.99-2.26,5.44-2.95,10.24-2.06.54.1.9.62.8,1.17-.1.54-.62.9-1.17.8-4.06-.76-6.88-.29-8.38,1.41-2.44,2.77-.79,8.01-.77,8.07.17.53-.12,1.09-.65,1.26-.1.03-.2.05-.31.05Z" fill="#42210b"/>
            <path d="M2064.13,908.83c-.39,0-.76-.23-.92-.61-.05-.13-1.32-3.16.21-5.47,1.02-1.55,2.96-2.33,5.77-2.33.55,0,1,.45,1,1s-.45,1-1,1c-2.09,0-3.47.48-4.1,1.43-.94,1.41-.06,3.58-.05,3.6.21.51-.03,1.09-.53,1.31-.13.05-.26.08-.39.08Z" fill="#42210b"/>
            <path d="M2074.57,929.74c-.51,0-.94-.38-.99-.9-.05-.55.35-1.04.9-1.1,2.07-.21,7.7-1.32,8.83-3.9.06-.13.1-.3-.11-.62-1.62-2.46-11.29-4.73-12.64-4.73-.55,0-1-.45-1-1s.45-1,1-1c1.37,0,12.06,2.21,14.31,5.63.68,1.03.52,1.94.27,2.52-1.79,4.12-9.58,5.01-10.46,5.1-.03,0-.07,0-.1,0Z" fill="#42210b"/>
            <path d="M2075.38,952.05l17.36-19.29s4.02,9.48,0,16.39c-4.02,6.91-17.36,2.89-17.36,2.89Z" fill="#42210b"/>
            <path d="M2858.38,696.07c-.43,0-.83-.28-.96-.72-.15-.53.15-1.08.68-1.24.07-.02,6.66-2,7.65-7.37.18-.98-.09-1.79-.86-2.55-2.79-2.75-10.4-3.22-11.94-2.92-.54.11-1.07-.24-1.18-.78-.11-.54.24-1.07.78-1.18,2.12-.42,10.36.13,13.74,3.45,1.23,1.22,1.73,2.72,1.42,4.34-1.22,6.59-8.74,8.84-9.06,8.93-.09.03-.19.04-.28.04Z" fill="#42210b"/>
            <path d="M2863.77,717.92c-.5,0-.93-.38-.99-.89-.06-.55.33-1.04.88-1.11,3.68-.42,6.4-1.84,8.09-4.22,3.25-4.6,1.74-11.36,1.73-11.43-.12-.54.21-1.07.75-1.2.54-.12,1.07.21,1.2.75.07.31,1.73,7.69-2.04,13.03-2.03,2.88-5.23,4.58-9.5,5.07-.04,0-.08,0-.11,0Z" fill="#42210b"/>
            <ellipse cx="2828.76" cy="687.62" rx="2.57" ry="4.5" transform="translate(342.3 2201.64) rotate(-45)" fill="#42210b"/>
            <ellipse cx="2852.75" cy="665.92" rx="2.57" ry="4.5" transform="translate(364.67 2212.25) rotate(-45)" fill="#42210b"/>
          </g>
          <path d="M3007.78,1442.14l-4.99-.29c2.47-43.27-27.23-72.49-27.53-72.78l3.47-3.6c1.29,1.25,31.65,31.04,29.05,76.66Z" fill="#fddfc2"/>
          <path d="M3249.19,1313.33c-42.77-6.68-43.26-28.82-43.26-29.76h5-2.5l2.5-.03c0,.19.83,18.87,39.03,24.84l-.77,4.94Z" fill="#fddfc2"/>
        </g>
        <path d="M2161.58,602.39c-9.04,0-21.74-10.09-22.36-10.59-.43-.35-.5-.98-.15-1.41.34-.43.97-.5,1.41-.15,4.6,3.69,17.92,12.59,24.17,9.53.95-.47,1.47-1.12,1.63-2.07.81-4.72-7.37-14.27-10.58-17.55l1.41-1.42c6.2,6.04,16.21,13.44,19.05,10.94,2.89-2.54-3.07-15.95-8.24-24.66-.28-.48-.12-1.09.35-1.37.48-.28,1.09-.12,1.37.35,2.22,3.74,13.02,22.64,7.83,27.19-2.89,2.53-8.36-.25-13.15-3.71,2.44,3.58,4.43,7.57,3.92,10.56-.27,1.57-1.21,2.79-2.72,3.53-1.18.58-2.51.83-3.94.83Z" fill="#42210b"/>
        <path d="M2578.86,852c-.27,0-.53-.11-.73-.32-.38-.4-.35-1.04.05-1.41l17.02-15.88c-5.72.47-17.68.12-22.38-9.96-1.21-2.59-1.17-4.96.11-7.03,4.6-7.44,24.36-8.09,25.2-8.11.58-.04,1.01.42,1.03.97s-.42,1.01-.97,1.03c-5.42.15-20.21,1.74-23.56,7.16-.92,1.48-.91,3.16,0,5.13,5.59,11.98,23.14,8.48,23.32,8.44l3.5-.73-21.9,20.44c-.19.18-.44.27-.68.27Z" fill="#42210b"/>
        <path d="M2527.07,856.46c-12.34,0-17.23-18.04-17.43-18.81-.14-.53.18-1.08.71-1.22.53-.14,1.08.18,1.22.71.05.17,4.7,17.32,15.5,17.32.07,0,.15,0,.22,0,2.11-.05,3.58-.74,4.5-2.12,3.22-4.85-1.18-16.13-1.23-16.24l-3.35-8.48,5.11,7.55c10.58,15.63,15.12,16.77,16.87,16.06,4.98-2.02,3.41-22.26,1.25-34.55-.09-.54.27-1.06.81-1.16.54-.1,1.06.27,1.16.81.6,3.42,5.64,33.47-2.46,36.75-3.65,1.48-8.71-2.28-15.74-11.78.88,3.96,1.35,8.99-.75,12.14-1.29,1.94-3.35,2.96-6.12,3.02-.09,0-.18,0-.27,0Z" fill="#42210b"/>
      </g>
    </g>
  </g>
</svg>