<?xml version="1.0" encoding="UTF-8"?>
<svg id="Layer_1" data-name="Layer 1" xmlns="http://www.w3.org/2000/svg" viewBox="0 0 1080 1350">
  <defs>
    <style>
      .cls-1 {
        fill: #fff;
      }

      .cls-2 {
        fill: #00a1f1;
      }

      .cls-3 {
        fill: #00668e;
      }
    </style>
  </defs>
  <rect class="cls-2" width="1080" height="1350"/>
  <g>
    <path class="cls-1" d="m116.69,1258.74h-13.5v-50.77h54.77c2.21,0,4-1.79,4-4s-1.79-4-4-4h-54.77V326.35h168.32v54.77c0,2.21,1.79,4,4,4h58.77c2.21,0,4-1.79,4-4s-1.79-4-4-4h-54.77v-113.55c0-2.21-1.79-4-4-4h-54.77v-109.55h54.77c2.21,0,4-1.79,4-4s-1.79-4-4-4h-117.55c-2.21,0-4,1.79-4,4s1.79,4,4,4h54.77v113.55c0,2.21,1.79,4,4,4h54.77v50.77H103.19v-109.55h50.77v54.77c0,2.21,1.79,4,4,4s4-1.79,4-4v-58.77c0-2.21-1.79-4-4-4h-54.77v-109.55h462.19v54.77c0,2.21,1.79,4,4,4h54.77v113.55c0,2.21,1.79,4,4,4s4-1.79,4-4v-117.55c0-2.21-1.79-4-4-4h-54.77v-50.77h285.87v50.77h-172.32c-2.21,0-4,1.79-4,4v172.32h-109.55v-113.55c0-2.21-1.79-4-4-4h-54.77v-54.77c0-2.21-1.79-4-4-4h-117.55c-2.21,0-4,1.79-4,4v54.77h-50.77v-54.77c0-2.21-1.79-4-4-4s-4,1.79-4,4v54.77h-54.77c-2.21,0-4,1.79-4,4s1.79,4,4,4h54.77v113.55c0,2.21,1.79,4,4,4h54.77v109.55h-227.1v-50.77h54.77c2.21,0,4-1.79,4-4s-1.79-4-4-4h-58.77c-2.21,0-4,1.79-4,4v58.77c0,2.21,1.79,4,4,4h235.1c2.21,0,4-1.79,4-4v-117.55c0-2.21-1.79-4-4-4h-54.77v-109.55h54.77c2.21,0,4-1.79,4-4v-54.77h109.55v54.77c0,2.21,1.79,4,4,4h54.77v109.55h-54.77c-2.21,0-4,1.79-4,4s1.79,4,4,4h54.77v113.55c0,2.21,1.79,4,4,4h113.55v50.77h-168.32v-54.77c0-2.21-1.79-4-4-4s-4,1.79-4,4v58.77c0,2.21,1.79,4,4,4h176.32c2.21,0,4-1.79,4-4v-58.77c0-2.21-1.79-4-4-4h-113.55v-109.55h113.55c2.21,0,4-1.79,4-4v-172.32h172.32c2.21,0,4-1.79,4-4v-54.77h66.74v-8H99.19c-2.21,0-4,1.79-4,4v1175.48c0,2.21,1.79,4,4,4h17.5v-8Z"/>
    <path class="cls-1" d="m980.81,83.26h-15.44v8h11.44v50.77h-54.77c-2.21,0-4,1.79-4,4v54.77h-172.32c-2.21,0-4,1.79-4,4v172.32h-113.55c-2.21,0-4,1.79-4,4s1.79,4,4,4h113.55v168.32h-285.87v-168.32h54.77c2.21,0,4-1.79,4-4s-1.79-4-4-4h-54.77v-109.55h54.77c2.21,0,4-1.79,4-4s-1.79-4-4-4h-54.77v-54.77c0-2.21-1.79-4-4-4s-4,1.79-4,4v54.77h-54.77c-2.21,0-4,1.79-4,4s1.79,4,4,4h54.77v227.1H157.97c-2.21,0-4,1.79-4,4v646.52c0,2.21,1.79,4,4,4h54.77v54.77c0,2.21,1.79,4,4,4h176.32c2.21,0,4-1.79,4-4v-117.55c0-2.21-1.79-4-4-4h-176.32c-2.21,0-4,1.79-4,4s1.79,4,4,4h172.32v109.55h-168.32v-50.77h113.55c2.21,0,4-1.79,4-4s-1.79-4-4-4h-172.32v-227.1h109.55v54.77c0,2.21,1.79,4,4,4s4-1.79,4-4v-54.77h54.77c2.21,0,4-1.79,4-4s-1.79-4-4-4h-54.77v-285.87h54.77c2.21,0,4-1.79,4-4s-1.79-4-4-4h-54.77v-54.77c0-2.21-1.79-4-4-4h-58.77c-2.21,0-4,1.79-4,4s1.79,4,4,4h54.77v109.55h-54.77c-2.21,0-4,1.79-4,4v58.77c0,2.21,1.79,4,4,4s4-1.79,4-4v-54.77h50.77v227.1h-109.55v-109.55h50.77v54.77c0,2.21,1.79,4,4,4s4-1.79,4-4v-58.77c0-2.21-1.79-4-4-4h-54.77v-168.32h54.77c2.21,0,4-1.79,4-4s-1.79-4-4-4h-54.77v-109.55h285.87v54.77c0,2.21,1.79,4,4,4h54.77v54.77c0,2.21,1.79,4,4,4h54.77v109.55h-54.77c-2.21,0-4,1.79-4,4v54.77h-113.55c-2.21,0-4,1.79-4,4s1.79,4,4,4h54.77v54.77c0,2.21,1.79,4,4,4h58.77c2.21,0,4-1.79,4-4s-1.79-4-4-4h-54.77v-50.77h54.77c2.21,0,4-1.79,4-4v-54.77h109.55v54.77c0,2.21,1.79,4,4,4h54.77v54.77c0,2.21,1.79,4,4,4h113.55v54.77c0,2.21,1.79,4,4,4h54.77v109.55h-54.77c-2.21,0-4,1.79-4,4v54.77h-54.77c-2.21,0-4,1.79-4,4v117.55c0,2.21,1.79,4,4,4s4-1.79,4-4v-113.55h54.77c2.21,0,4-1.79,4-4v-54.77h54.77c2.21,0,4-1.79,4-4v-117.55c0-2.21-1.79-4-4-4h-54.77v-109.55h113.55c2.21,0,4-1.79,4-4s-1.79-4-4-4h-54.77v-109.55h54.77c2.21,0,4-1.79,4-4s-1.79-4-4-4h-113.55v-54.77c0-2.21-1.79-4-4-4s-4,1.79-4,4v113.55h-113.55c-2.21,0-4,1.79-4,4s1.79,4,4,4h117.55c2.21,0,4-1.79,4-4v-54.77h50.77v109.55h-54.77c-2.21,0-4,1.79-4,4v54.77h-109.55v-50.77h54.77c2.21,0,4-1.79,4-4s-1.79-4-4-4h-113.55v-54.77c0-2.21-1.79-4-4-4h-54.77v-113.55c0-2.21-1.79-4-4-4h-54.77v-50.77h227.1v109.55h-109.55v-50.77h54.77c2.21,0,4-1.79,4-4s-1.79-4-4-4h-58.77c-2.21,0-4,1.79-4,4v58.77c0,2.21,1.79,4,4,4h117.55c2.21,0,4-1.79,4-4v-172.32h168.32v54.77c0,2.21,1.79,4,4,4s4-1.79,4-4v-117.55c0-2.21-1.79-4-4-4h-54.77v-54.77c0-2.21-1.79-4-4-4h-58.77c-2.21,0-4,1.79-4,4v58.77c0,2.21,1.79,4,4,4s4-1.79,4-4v-54.77h50.77v54.77c0,2.21,1.79,4,4,4h54.77v50.77h-168.32V208.81h172.32c2.21,0,4-1.79,4-4v-54.77h50.77v227.1h-50.77v-54.77c0-2.21-1.79-4-4-4h-113.55v-50.77h113.55c2.21,0,4-1.79,4-4s-1.79-4-4-4h-117.55c-2.21,0-4,1.79-4,4v58.77c0,2.21,1.79,4,4,4h113.55v54.77c0,2.21,1.79,4,4,4h54.77v227.1h-109.55v-54.77c0-2.21-1.79-4-4-4h-58.77c-2.21,0-4,1.79-4,4s1.79,4,4,4h54.77v54.77c0,2.21,1.79,4,4,4h113.55v109.55h-54.77c-2.21,0-4,1.79-4,4s1.79,4,4,4h54.77v403.42h-54.77c-2.21,0-4,1.79-4,4v58.77c0,2.21,1.79,4,4,4s4-1.79,4-4v-54.77h50.77v109.55h-168.32v-109.55h50.77v54.77c0,2.21,1.79,4,4,4s4-1.79,4-4v-113.55h54.77c2.21,0,4-1.79,4-4v-235.1c0-2.21-1.79-4-4-4h-58.77c-2.21,0-4,1.79-4,4s1.79,4,4,4h54.77v227.1h-54.77c-2.21,0-4,1.79-4,4v54.77h-54.77c-2.21,0-4,1.79-4,4v113.55h-168.32v-231.1c0-2.21-1.79-4-4-4h-117.55c-2.21,0-4,1.79-4,4s1.79,4,4,4h113.55v168.32h-109.55v-54.77c0-2.21-1.79-4-4-4s-4,1.79-4,4v58.77c0,2.21,1.79,4,4,4h113.55v50.77h-168.32v-168.32h109.55v54.77c0,2.21,1.79,4,4,4s4-1.79,4-4v-58.77c0-2.21-1.79-4-4-4h-113.55v-113.55c0-2.21-1.79-4-4-4s-4,1.79-4,4v54.77h-109.55v-50.77h54.77c2.21,0,4-1.79,4-4v-54.77h172.32c2.21,0,4-1.79,4-4v-54.77h50.77v54.77c0,2.21,1.79,4,4,4h113.55v109.55h-50.77v-54.77c0-2.21-1.79-4-4-4h-176.32c-2.21,0-4,1.79-4,4s1.79,4,4,4h172.32v231.1c0,2.21,1.79,4,4,4s4-1.79,4-4v-172.32h54.77c2.21,0,4-1.79,4-4v-54.77h54.77c2.21,0,4-1.79,4-4s-1.79-4-4-4h-54.77v-54.77c0-2.21-1.79-4-4-4h-113.55v-54.77c0-2.21-1.79-4-4-4h-54.77v-54.77c0-2.21-1.79-4-4-4s-4,1.79-4,4v113.55h-168.32v-54.77c0-2.21-1.79-4-4-4h-54.77v-168.32h54.77c2.21,0,4-1.79,4-4v-54.77h50.77v109.55h-54.77c-2.21,0-4,1.79-4,4s1.79,4,4,4h58.77c2.21,0,4-1.79,4-4v-54.77h54.77c2.21,0,4-1.79,4-4s-1.79-4-4-4h-54.77v-54.77c0-2.21-1.79-4-4-4h-54.77v-54.77c0-2.21-1.79-4-4-4h-58.77c-2.21,0-4,1.79-4,4s1.79,4,4,4h54.77v109.55h-54.77c-2.21,0-4,1.79-4,4v176.32c0,2.21,1.79,4,4,4h54.77v109.55h-54.77c-2.21,0-4,1.79-4,4v54.77h-109.55v-54.77c0-2.21-1.79-4-4-4s-4,1.79-4,4v58.77c0,2.21,1.79,4,4,4h231.1v227.1H151.98v8h828.83c2.21,0,4-1.79,4-4V87.26c0-2.21-1.79-4-4-4Z"/>
    <path class="cls-3" d="m191.35,1237.35h-62.77c-2.21,0-4-1.79-4-4s1.79-4,4-4h54.77v-50.77h-58.77V465.29h293.87v-168.32h-58.77v-66.77h58.77v-58.77h66.77v58.77h58.77v66.77h-58.77v50.77h58.77v66.77h-58.77v109.55h227.1v-109.55h-117.55v-66.77h117.55v-176.32h176.32v-58.77h62.77c2.21,0,4,1.79,4,4s-1.79,4-4,4h-54.77v58.77h-176.32v176.32h-117.55v50.77h117.55v125.55h-243.1v-125.55h58.77v-50.77h-58.77v-66.77h58.77v-50.77h-58.77v-58.77h-50.77v58.77h-58.77v50.77h58.77v184.32H132.58v697.29h58.77v66.77Z"/>
  </g>
</svg>