<?xml version="1.0" encoding="UTF-8" standalone="no"?>
<!-- Created with Inkscape (http://www.inkscape.org/) -->

<svg
   version="1.1"
   id="svg3708"
   width="880"
   height="880"
   viewBox="0 0 880 880"
   sodipodi:docname="mountains-nature-publicdomain-vector.svg"
   inkscape:version="1.2 (dc2aedaf03, 2022-05-15)"
   xmlns:inkscape="http://www.inkscape.org/namespaces/inkscape"
   xmlns:sodipodi="http://sodipodi.sourceforge.net/DTD/sodipodi-0.dtd"
   xmlns="http://www.w3.org/2000/svg"
   xmlns:svg="http://www.w3.org/2000/svg">
  <defs
     id="defs3712">
    <clipPath
       clipPathUnits="userSpaceOnUse"
       id="clipPath3726">
      <path
         d="M 0,660 H 660 V 0 H 0 Z"
         id="path3724" />
    </clipPath>
  </defs>
  <sodipodi:namedview
     id="namedview3710"
     pagecolor="#ffffff"
     bordercolor="#000000"
     borderopacity="0.25"
     inkscape:showpageshadow="2"
     inkscape:pageopacity="0.0"
     inkscape:pagecheckerboard="0"
     inkscape:deskcolor="#d1d1d1"
     showgrid="false"
     inkscape:zoom="0.95113636"
     inkscape:cx="441.05137"
     inkscape:cy="440.52569"
     inkscape:window-width="1920"
     inkscape:window-height="1017"
     inkscape:window-x="-8"
     inkscape:window-y="-8"
     inkscape:window-maximized="1"
     inkscape:current-layer="g3716">
    <inkscape:page
       x="0"
       y="0"
       id="page3714"
       width="880"
       height="880" />
  </sodipodi:namedview>
  <g
     id="g3716"
     inkscape:groupmode="layer"
     inkscape:label="Page 1"
     transform="matrix(1.3333333,0,0,-1.3333333,0,880)">
    <path
       d="M 2.086,2.043 H 660 V 660 H 2.086 Z"
       style="fill:#98c6f5;fill-opacity:1;fill-rule:nonzero;stroke:none"
       id="path3718" />
    <g
       id="g3720">
      <g
         id="g3722"
         clip-path="url(#clipPath3726)">
        <g
           id="g3728"
           transform="translate(660.043,369.2534)">
          <path
             d="m 0,0 c -109.31,-8.014 -161.855,-6.901 -271.537,25.742 -49.738,14.802 -52.495,15.975 -104.992,10.954 -16.66,-1.627 -33.282,-3.394 -49.919,-5.251 -16.827,-1.691 -35.159,-2.48 -51.49,-6.699 -23.41,-6.049 -24.54,-12.138 -31.704,-32.045 l -1.955,-4.114 c -7.289,-8.93 -12.689,-9.905 -23.433,-13.476 -10.652,-3.722 -21.56,-8.565 -32.187,-11.784 -30.169,-9.141 -51.783,12.009 -73.713,-5.326 -7.081,-5.599 -11.558,-17.84 -17.027,-26.918 v -41.506 c 6.828,3.563 14.594,4.508 23.809,-3.977 23.364,-21.508 35.583,-32.957 66.58,-44.076 14.26,-5.116 53.708,-11.854 57.913,-25.788 3.616,-11.987 -24.481,-44.34 33.264,-24.065 0.066,2.706 0.377,4.626 -2.003,6.247 -11.27,7.68 19.2,28.202 0.651,45.166 -15.59,14.255 -70.529,17.502 -97.872,32.967 -29.992,16.964 -28.187,32.225 -39.947,59.069 -2.752,5.827 -13.187,16.856 -10.447,19.599 8.095,8.101 30.324,-9.103 36.582,-14.041 11.266,-8.671 18.8,-15.25 33.29,-17.396 18.403,-2.728 45.048,-13.601 63.537,-20.297 71.566,-25.915 50.83,-47.812 140.616,-45.328 89.135,2.465 -43.557,44.544 -59.149,49.826 -57.121,19.344 51.984,13.557 58.509,13.395 87.882,-1.504 170.621,-3.93 257.184,-20.415 30.595,-5.826 58.922,-15.307 89.778,-9.532 1.089,0.222 3.092,0.65 5.662,1.254 v 30.709 c -15.343,1.692 -31.175,2.463 -39.329,2.932 -55.244,3.177 -104.724,11.032 -158.972,16.959 -27.823,3.04 -84.153,5.057 -104.765,22.207 -8.612,7.167 55.629,4.383 58.362,4.231 61.159,-3.396 114.036,-9.901 176.226,-8.641 21.56,0.504 45.275,1.021 68.478,1.953 z M 0,49.804 V 37.271 c -16.309,5.367 -23.262,10.487 0,12.533"
             style="fill:#b8dcff;fill-opacity:1;fill-rule:evenodd;stroke:none"
             id="path3730" />
        </g>
        <g
           id="g3732"
           transform="translate(2.0859,282.8447)">
          <path
             d="M 0,0 41.85,41.85 148.539,-64.839 V -268.467 L 0,-264.017 Z"
             style="fill:#669ed6;fill-opacity:1;fill-rule:evenodd;stroke:none"
             id="path3734" />
        </g>
        <g
           id="g3736"
           transform="translate(2.0859,74.291)">
          <path
             d="M 0,0 5.438,-2.513 0,-5.375 Z M 0,113.993 25.12,101.802 0,90.439 Z M 41.85,250.403 9.374,194.309 51.69,171.675 0,150.998 v 57.556 z"
             style="fill:#daeafa;fill-opacity:1;fill-rule:evenodd;stroke:none"
             id="path3738" />
        </g>
        <g
           id="g3740"
           transform="translate(255.1675,86.6104)">
          <path
             d="M 0,0 298.187,298.185 404.876,191.496 V -12.132 Z"
             style="fill:#669ed6;fill-opacity:1;fill-rule:evenodd;stroke:none"
             id="path3742" />
        </g>
        <g
           id="g3744"
           transform="translate(660.043,183.3975)">
          <path
             d="m 0,0 v -8.195 l -110.684,10.918 31.75,18.881 -34.543,15.464 33.215,6.307 -39.857,25.222 18.865,3.662 -19.663,16.148 39.059,-19.759 -10.096,-6.888 48.892,-27.435 -16.741,-0.872 z"
             style="fill:#5283b5;fill-opacity:1;fill-rule:evenodd;stroke:none"
             id="path3746" />
        </g>
        <g
           id="g3748"
           transform="translate(553.3545,384.7949)">
          <path
             d="m 0,0 -32.476,-56.095 42.317,-22.633 -93.49,-37.397 66.919,-32.477 -123.997,-56.092 104.314,-48.222 -168.281,-88.57 -88.571,48.221 z"
             style="fill:#daeafa;fill-opacity:1;fill-rule:evenodd;stroke:none"
             id="path3750" />
        </g>
        <g
           id="g3752"
           transform="translate(30.2563,660)">
          <path
             d="m 0,0 h 629.787 v -10.504 c -40.991,-3.604 -79.232,-6.614 -92.589,-8.034 -6.444,-0.669 -94.446,-8.939 -82.189,-20.768 24.259,-19.46 132.652,-19.016 170.136,-22.1 1.563,-0.128 3.107,-0.257 4.642,-0.386 v -46.018 c -58.539,-1.639 -103.388,-8.835 -164.246,-28.918 -65.694,-21.679 -83.755,-18 -153.143,-15.969 -45.364,1.346 -36.987,0.732 -78.002,-9.599 -60.427,-14.842 -159.289,-26.168 -221.042,-15.489 -11.824,2.044 -26.281,5.616 -41.524,9.444 v 12.295 c 29.923,-7.139 56.834,-12.536 97.047,-10.101 52.735,3.167 138.803,21.75 182.719,44.756 49.75,26.062 55.642,20.16 113.306,16.053 17.734,-1.263 35.195,-2.352 52.992,-2.811 6.879,-0.147 52.255,1.991 52.103,8.543 -10.016,2.807 -26.22,5.841 -37.428,8.383 -32.982,7.24 -109.91,19.098 -141.506,13.856 -32.056,-5.319 -55.058,-24.026 -87.429,-33.115 -7.689,-2.16 -53.006,-13.404 -56.453,-4.255 -1.645,4.367 27.831,38.442 -4.852,42.418 -35.137,2.156 -125.97,-29.822 -168.922,-32.951 l -1.577,-0.112 v 52.371 c 2.743,-0.441 5.496,-0.876 8.259,-1.307 38.963,-5.899 82.767,-2.089 119.933,10.032 13.745,4.484 -12.538,9.248 -19.73,11.922 -13.083,4.865 -27.096,12.86 -41.473,18.508 C 26.543,-9.035 13.368,-4.368 0,0"
             style="fill:#7bb1e8;fill-opacity:1;fill-rule:evenodd;stroke:none"
             id="path3754" />
        </g>
        <g
           id="g3756"
           transform="translate(21.9082,137.3184)">
          <path
             d="m 0,0 281.578,275.427 16.607,22.758 316.608,-316.607 z"
             style="fill:#588bbf;fill-opacity:1;fill-rule:evenodd;stroke:none"
             id="path3758" />
        </g>
        <g
           id="g3760"
           transform="translate(582.3906,173.207)">
          <path
             d="m 0,0 12.561,-12.562 -225.894,22.281 58.797,34.969 -63.967,28.636 61.507,11.678 -73.809,46.706 34.936,6.782 -36.412,29.905 72.333,-36.591 -18.699,-12.757 90.539,-50.805 -31,-1.61 z"
             style="fill:#3b6a99;fill-opacity:1;fill-rule:evenodd;stroke:none"
             id="path3762" />
        </g>
        <g
           id="g3764"
           transform="translate(320.0928,435.5039)">
          <path
             d="m 0,0 -32.474,-56.095 42.315,-22.634 -93.49,-37.396 66.92,-32.476 -123.998,-56.094 104.316,-48.222 -168.283,-88.57 -88.57,48.221 z"
             style="fill:#daeafa;fill-opacity:1;fill-rule:evenodd;stroke:none"
             id="path3766" />
        </g>
        <g
           id="g3768"
           transform="translate(53.647,141.5)">
          <path
             d="m 0,0 62.491,37.89 -15.253,28.538 77.497,56.833 -45.11,-60.045 44.373,-27.297 -16.73,-52.648 z"
             style="fill:#9bbcde;fill-opacity:1;fill-rule:evenodd;stroke:none"
             id="path3770" />
        </g>
        <g
           id="g3772"
           transform="translate(660.043,201.7676)">
          <path
             d="M 0,0 V -199.725 H -459.162 C -444.951,-92.89 -247.49,-7.198 0,0"
             style="fill:#7cb54b;fill-opacity:1;fill-rule:evenodd;stroke:none"
             id="path3774" />
        </g>
        <g
           id="g3776"
           transform="translate(660.043,181.7676)">
          <path
             d="M 0,0 V -173.819 H -254.466 C -244.498,-98.873 -144.341,-34.336 0,0"
             style="fill:#75ad43;fill-opacity:1;fill-rule:evenodd;stroke:none"
             id="path3778" />
        </g>
        <g
           id="g3780"
           transform="translate(660.043,54.7051)">
          <path
             d="M 0,0 V -52.662 H -657.957 V 96.851 c 37.954,2.273 77.144,3.477 117.25,3.477 C -306.403,100.328 -102.881,59.686 0,0"
             style="fill:#5f992c;fill-opacity:1;fill-rule:evenodd;stroke:none"
             id="path3782" />
        </g>
        <g
           id="g3784"
           transform="translate(602.9639,2.043)">
          <path
             d="m 0,0 h -211.904 c -13.183,59.345 -38.878,106.175 -74.606,142.973 57.94,-6.08 111.964,-14.771 160.633,-25.612 C -80.898,83.732 -39.483,43.622 0,0"
             style="fill:#6ba637;fill-opacity:1;fill-rule:evenodd;stroke:none"
             id="path3786" />
        </g>
        <g
           id="g3788"
           transform="translate(660.043,36.0498)">
          <path
             d="m 0,0 v -34.007 h -657.957 v 79.498 c 42.529,1.765 85.925,2.683 130.019,2.683 C -333.234,48.174 -151.954,30.467 0,0"
             style="fill:#589126;fill-opacity:1;fill-rule:evenodd;stroke:none"
             id="path3790" />
        </g>
        <g
           id="g3792"
           transform="translate(602.9639,2.043)">
          <path
             d="m 0,0 h -211.904 c -5.997,26.996 -14.582,51.401 -25.523,73.451 65.07,-4.962 127.55,-11.95 186.707,-20.734 C -33.396,35.904 -16.527,18.262 0,0"
             style="fill:#5f992c;fill-opacity:1;fill-rule:evenodd;stroke:none"
             id="path3794" />
        </g>
        <g
           id="g3796"
           transform="translate(77.4429,450.7573)">
          <path
             d="M 0,0 H 183.549 C 183.03,13.91 153.756,18.599 144.594,8.013 135.011,33.97 94.315,31.055 87.153,7.46 86.994,37.587 43.855,35.756 36.313,9.119 27.673,18.411 6.009,8.835 0,0"
             style="fill:#ffffff;fill-opacity:1;fill-rule:evenodd;stroke:none"
             id="path3798" />
        </g>
        <g
           id="g3800"
           transform="translate(334.2969,527.5186)">
          <path
             d="M 0,0 H 183.549 C 183.027,13.909 164.58,19.582 155.419,8.996 163.256,74.67 117.079,68.098 94.533,9.428 94.375,39.555 51.234,37.724 43.693,11.085 35.053,20.378 6.008,8.834 0,0"
             style="fill:#ffffff;fill-opacity:1;fill-rule:evenodd;stroke:none"
             id="path3802" />
        </g>
        <g
           id="g3804"
           transform="translate(202.3486,89.4922)">
          <path
             d="M 0,0 23.887,63.274 46.96,8.39 30.249,17.258 70.494,-58.799 41.474,-48.538 76.634,-87.449 H -9.288 v 29.515 l 13.531,12.268 -13.531,-1.676 v 7.505 l 20.779,38.336 z"
             style="fill:#396315;fill-opacity:1;fill-rule:evenodd;stroke:none"
             id="path3806" />
        </g>
        <g
           id="g3808"
           transform="translate(103.7036,168.4561)">
          <path
             d="M 0,0 45.455,120.416 89.365,15.97 57.562,32.845 l 76.587,-144.738 -55.226,19.527 66.909,-74.047 H -17.676 v 56.168 l 25.75,23.346 -25.75,-3.188 v 14.278 l 39.541,72.954 z"
             style="fill:#4c7d20;fill-opacity:1;fill-rule:evenodd;stroke:none"
             id="path3810" />
        </g>
        <g
           id="g3812"
           transform="translate(426.3105,438.9482)">
          <path
             d="M 0,0 H 112.548 C 112.257,7.839 92.755,11.036 87.591,5.07 75.766,21.372 55.907,25.529 53.277,5.313 45.642,29.032 18.034,30.941 24.625,6.248 5.63,20.365 -5.512,10.572 0,0"
             style="fill:#ffffff;fill-opacity:1;fill-rule:evenodd;stroke:none"
             id="path3814" />
        </g>
        <g
           id="g3816"
           transform="translate(23.1304,200.1689)">
          <path
             d="m 0,0 54.117,143.361 52.277,-124.35 -37.863,20.093 91.182,-172.32 -65.749,23.248 79.658,-88.158 H -21.044 v 66.873 l 30.655,27.793 -30.655,-3.796 v 17.001 L 37.84,33.998 Z"
             style="fill:#396315;fill-opacity:1;fill-rule:evenodd;stroke:none"
             id="path3818" />
        </g>
      </g>
    </g>
  </g>
</svg>
