<svg id="Layer_1" data-name="Layer 1" xmlns="http://www.w3.org/2000/svg" viewBox="0 0 96 96"><defs><style>.cls-1{fill:#cba07a;}.cls-2{fill:#ccd1dc;}.cls-3{fill:#dee1e7;}.cls-4{fill:#878c9f;}.cls-5{fill:#f3f4f5;}.cls-6{fill:#c3e1f5;}.cls-7{fill:#969cb2;}.cls-8{fill:#8288a1;}.cls-9{fill:#c6ccda;}.cls-10{fill:#39426a;}</style></defs><title>clipboard, chart, settings, options, preferences, gear</title><rect class="cls-1" x="5.63" y="3.66" width="63.06" height="80.79" rx="3.94"/><rect class="cls-2" x="10.56" y="8.59" width="53.21" height="70.94"/><path class="cls-3" d="M13.51,8.59H63.76a0,0,0,0,1,0,0v68a0,0,0,0,1,0,0H27.31A13.79,13.79,0,0,1,13.51,62.78V8.59a0,0,0,0,1,0,0Z"/><rect class="cls-4" x="24.35" y="1.69" width="25.62" height="9.85" rx="1.97"/><path class="cls-5" d="M17.46,14.5H58.84a2,2,0,0,1,2,2V72.63a2,2,0,0,1-2,2h0A43.35,43.35,0,0,1,15.49,31.25V16.47a2,2,0,0,1,2-2Z"/><rect class="cls-6" x="17.46" y="19.43" width="5.91" height="5.91"/><rect class="cls-6" x="17.46" y="33.22" width="5.91" height="5.91"/><rect class="cls-6" x="17.46" y="47.01" width="5.91" height="5.91"/><rect class="cls-6" x="17.46" y="60.81" width="5.91" height="5.91"/><path class="cls-7" d="M45,7.6H29.28a1,1,0,1,1,0-2H45a1,1,0,1,1,0,2Z"/><path class="cls-8" d="M90.37,79.53V71.65H85.88a14.87,14.87,0,0,0-1.38-3.34l3.17-3.17L82.1,59.56l-3.17,3.18a14,14,0,0,0-3.34-1.38V56.87H67.71v4.49a14,14,0,0,0-3.34,1.38L61.2,59.56l-5.58,5.58,3.17,3.17a14.4,14.4,0,0,0-1.37,3.34H52.93v7.88h4.49a14.4,14.4,0,0,0,1.37,3.34L55.62,86l5.58,5.57,3.17-3.17a14.87,14.87,0,0,0,3.34,1.38v4.49h7.88V89.82a14.87,14.87,0,0,0,3.34-1.38l3.17,3.17L87.67,86,84.5,82.87a14.87,14.87,0,0,0,1.38-3.34Z"/><circle class="cls-7" cx="71.65" cy="75.59" r="10.84"/><circle class="cls-9" cx="71.65" cy="75.59" r="7.88"/><circle class="cls-8" cx="71.65" cy="75.59" r="3.94"/><path class="cls-10" d="M23.37,26.32H17.46a1,1,0,0,1-1-1V19.43a1,1,0,0,1,1-1h5.91a1,1,0,0,1,1,1v5.91A1,1,0,0,1,23.37,26.32Zm-4.93-2h3.94V20.41H18.44Z"/><path class="cls-10" d="M23.37,40.12H17.46a1,1,0,0,1-1-1V33.22a1,1,0,0,1,1-1h5.91a1,1,0,0,1,1,1v5.91A1,1,0,0,1,23.37,40.12Zm-4.93-2h3.94V34.21H18.44Z"/><path class="cls-10" d="M23.37,53.91H17.46a1,1,0,0,1-1-1V47a1,1,0,0,1,1-1h5.91a1,1,0,0,1,1,1v5.92A1,1,0,0,1,23.37,53.91Zm-4.93-2h3.94V48H18.44Z"/><path class="cls-10" d="M23.37,67.71H17.46a1,1,0,0,1-1-1V60.81a1,1,0,0,1,1-1h5.91a1,1,0,0,1,1,1v5.91A1,1,0,0,1,23.37,67.71Zm-4.93-2h3.94V61.79H18.44Z"/><path class="cls-10" d="M56.87,20.41H28.29a1,1,0,0,1,0-2H56.87a1,1,0,0,1,0,2Z"/><path class="cls-10" d="M51.94,25.34H28.29a1,1,0,0,1,0-2H51.94a1,1,0,1,1,0,2Z"/><path class="cls-10" d="M56.87,34.21H28.29a1,1,0,0,1,0-2H56.87a1,1,0,0,1,0,2Z"/><path class="cls-10" d="M51.94,39.13H28.29a1,1,0,0,1,0-2H51.94a1,1,0,1,1,0,2Z"/><path class="cls-10" d="M56.87,48H28.29a1,1,0,0,1,0-2H56.87a1,1,0,0,1,0,2Z"/><path class="cls-10" d="M51.94,52.93H28.29a1,1,0,0,1,0-2H51.94a1,1,0,1,1,0,2Z"/><path class="cls-10" d="M56.87,61.79H28.29a1,1,0,0,1,0-2H56.87a1,1,0,0,1,0,2Z"/><path class="cls-10" d="M51.94,66.72H28.29a1,1,0,0,1,0-2H51.94a1,1,0,1,1,0,2Z"/><path class="cls-10" d="M90.37,70.66H86.61a16,16,0,0,0-.9-2.17l2.66-2.66a1,1,0,0,0,.29-.69,1,1,0,0,0-.29-.7l-5.58-5.57a1,1,0,0,0-1.39,0l-2.65,2.65a15.33,15.33,0,0,0-2.18-.89V56.87a1,1,0,0,0-1-1H69.68V7.6a4.93,4.93,0,0,0-4.93-4.92h-14a2.87,2.87,0,0,0-2.72-2H26.25a2.87,2.87,0,0,0-2.72,2h-14A4.93,4.93,0,0,0,4.65,7.6V80.51a4.93,4.93,0,0,0,4.92,4.93H54.86a1,1,0,0,0-.22.6,1,1,0,0,0,.29.7l5.57,5.57a1,1,0,0,0,1.39,0l2.66-2.66a13.77,13.77,0,0,0,2.17.9v3.76a1,1,0,0,0,1,1h7.88a1,1,0,0,0,1-1V90.55a14.29,14.29,0,0,0,2.18-.9l2.65,2.66a1,1,0,0,0,.7.29,1,1,0,0,0,.69-.29l5.58-5.57a1,1,0,0,0,0-1.4l-2.66-2.65a16.1,16.1,0,0,0,.9-2.18h3.76a1,1,0,0,0,1-1V71.65A1,1,0,0,0,90.37,70.66ZM67.71,7.6V55.88a1,1,0,0,0-1,1v3.76a14.76,14.76,0,0,0-2,.8V8.59a1,1,0,0,0-1-1H51V4.65H64.75A3,3,0,0,1,67.71,7.6ZM54.93,65.83l2.65,2.66a16,16,0,0,0-.9,2.17H52.93a1,1,0,0,0-1,1v6.89H11.54v-69H23.37v.08a2.88,2.88,0,0,0,2.88,2.88H48.07A2.89,2.89,0,0,0,51,9.65V9.57H62.78V59.75l-.89-.88a.94.94,0,0,0-.69-.29,1,1,0,0,0-.7.29l-5.57,5.57a1,1,0,0,0-.29.7A.94.94,0,0,0,54.93,65.83ZM25.34,3.59a.91.91,0,0,1,.91-.91H48.07a.92.92,0,0,1,.92.91V9.65a.92.92,0,0,1-.92.91H26.25a.91.91,0,0,1-.91-.91ZM6.62,80.51V7.6a3,3,0,0,1,3-2.95h13.8V7.6H10.56a1,1,0,0,0-1,1V79.53a1,1,0,0,0,1,1H56.68a16.1,16.1,0,0,0,.9,2.18l-.78.78H9.57A3,3,0,0,1,6.62,80.51Zm82.76-2h-3.5a1,1,0,0,0-.95.73,14,14,0,0,1-1.29,3.11,1,1,0,0,0,.16,1.18L86.28,86,82.1,90.22l-2.48-2.48a1,1,0,0,0-1.18-.16,13.51,13.51,0,0,1-3.11,1.29,1,1,0,0,0-.73.95v3.5H68.69v-3.5a1,1,0,0,0-.72-.95,13.59,13.59,0,0,1-3.12-1.29,1,1,0,0,0-1.18.16L61.2,90.22,57,86l.87-.87,0,0,1.57-1.57a1,1,0,0,0,.16-1.18,13.49,13.49,0,0,1-1.28-3.11l0-.06a1,1,0,0,0-.07-.15,1.3,1.3,0,0,0-.1-.15l-.11-.12-.17-.11-.12-.07a1,1,0,0,0-.33-.06H53.91V72.63h3.51a1,1,0,0,0,.95-.72,13.31,13.31,0,0,1,1.28-3.11,1,1,0,0,0-.16-1.19L57,65.14,61.2,61l2.47,2.47a1,1,0,0,0,1.18.16A13.56,13.56,0,0,1,68,62.31a1,1,0,0,0,.72-1V57.85H74.6v3.51a1,1,0,0,0,.73,1,13.49,13.49,0,0,1,3.11,1.28,1,1,0,0,0,1.18-.16L82.1,61l4.18,4.18L83.8,67.61a1,1,0,0,0-.16,1.19,13.78,13.78,0,0,1,1.29,3.11,1,1,0,0,0,.95.72h3.5Z"/><path class="cls-10" d="M71.65,80.51a4.93,4.93,0,1,1,4.92-4.92A4.93,4.93,0,0,1,71.65,80.51Zm0-7.88a3,3,0,1,0,2.95,3A3,3,0,0,0,71.65,72.63Z"/><path class="cls-10" d="M71.65,84.46a8.87,8.87,0,1,1,8.86-8.87A8.88,8.88,0,0,1,71.65,84.46Zm0-15.77a6.9,6.9,0,1,0,6.89,6.9A6.91,6.91,0,0,0,71.65,68.69Z"/></svg>