<svg width="1920" height="1920" viewBox="0 0 1920 1920" fill="none" xmlns="http://www.w3.org/2000/svg">
<rect width="1920" height="1920" fill="#34AAFF"/>
<rect x="374" y="125" width="1172" height="1670" rx="48" fill="white"/>
<rect x="686" y="229" width="548" height="40" rx="20" fill="#34AAFF"/>
<rect x="422" y="309" width="1076" height="32" rx="16" fill="#A3D8FF"/>
<rect x="517.5" y="365" width="885" height="32" rx="16" fill="#A3D8FF"/>
<rect x="422" y="477" width="104" height="104" rx="24" fill="#34AAFF"/>
<rect x="573" y="513" width="335" height="32" rx="16" fill="#34AAFF"/>
<rect x="422" y="605" width="104" height="104" rx="24" fill="#A3D8FF"/>
<rect x="573" y="641" width="471" height="32" rx="16" fill="#A3D8FF"/>
<rect x="422" y="733" width="104" height="104" rx="24" fill="#A3D8FF"/>
<rect x="573" y="769" width="388" height="32" rx="16" fill="#A3D8FF"/>
<rect x="422" y="861" width="104" height="104" rx="24" fill="#A3D8FF"/>
<rect x="573" y="897" width="335" height="32" rx="16" fill="#A3D8FF"/>
<rect x="422" y="1045" width="1076" height="374" rx="48" fill="#EDF7FF"/>
<circle cx="554" cy="1177" r="52" fill="#34AAFF"/>
<rect x="662" y="1163" width="756" height="32" rx="16" fill="#34AAFF"/>
<rect x="662" y="1251" width="756" height="32" rx="16" fill="#A3D8FF"/>
<rect x="662" y="1307" width="382" height="32" rx="16" fill="#A3D8FF"/>
<rect x="422" y="1499" width="1076" height="192" rx="48" fill="#21D96B"/>
<rect x="597" y="1579" width="726" height="32" rx="16" fill="white"/>
</svg>
