<svg version="1.2" xmlns="http://www.w3.org/2000/svg" viewBox="0 0 1000 1000" width="1000" height="1000">
	<title>New Project</title>
	<style>
		.s0 { fill: #c177c9 } 
		.s1 { fill: #ff0000;stroke: #000000;stroke-miterlimit:10;stroke-width: 28 } 
	</style>
	<g id="Layer 1">
		<path id="Shape 2" fill-rule="evenodd" class="s0" d="m1000 0v1005h-1000v-1005z"/>
		<path id="Shape 3" fill-rule="evenodd" class="s1" d="m193.6 57.5c50.3 0.6 190.5-1.2 262.7 1.1 72.2 2.4 382 1.4 422 2 40 0.5 54.1 16.1 58.7 36.1 4.6 20 1.6 109.9 2.9 249.2 1.3 139.3 0.7 183.2 1.4 205 2 57.5-163.2 25.5-162.3 71.9 1.2 64.9 117.9 182 45 184.6-74 2.6-176.2-0.9-260.7-7.5-74.8-5.8 47.9-227.7-61.5-164.7-113.2 65.2-70.4-392-161.2-430.1-98.4-41.3-109.7 74.4-96.8 159.3 12.6 82.3 117.7 75.2 121.9 161.6 4.2 86.5-120.5 212.8-123.7 258-3.2 45.2 174-140.5 185.6-138.6 14.1 2.2-83.6 231.1-28.3 230.5 55.3-0.7 171.4-17.9 277.2-18 105.8 0 201.9 25.4 219.5 34.6 51.6 27.1 65 55.3 24.7 57.5-40.3 2.1-710.4-3.6-749.4-3-39 0.7-102.2-20.9-105-78.8-2.8-57.9-3.8-92.6-4.9-165.3-1-72.7-4.3-295.6-4.1-374.1 0.2-78.5 2.9-152.4 4.3-197 1.4-43.4 49.1-75.2 132-74.3z"/>
	</g>
</svg>